<svg xmlns:xlink="http://www.w3.org/1999/xlink" fill="none" xmlns="http://www.w3.org/2000/svg" viewBox="0 0 192 70" width="192"  height="70" ><path d="M192 4.35489V4.84378L191.82 8.08675V8.51046C191.82 9.98528 191.526 10.8082 191.379 12.2749C191.347 12.6253 191.273 12.8371 191.379 13.1712L190.906 17.8157C190.873 18.7038 190.816 19.209 190.799 20.0972C190.775 21.3683 190.995 23.5031 190.995 23.9105C190.995 24.3586 190.954 24.6194 190.897 25.0675C190.832 25.5646 190.75 25.8416 190.693 26.3468C190.636 26.9416 190.62 27.2838 190.595 27.8868C190.538 29.0846 190.554 29.7527 190.53 30.9505C190.595 31.5453 190.628 31.8794 190.628 32.4742C190.628 32.5394 190.562 32.5638 190.562 32.6372C190.562 33.012 190.66 33.2157 190.66 33.5905V39.2861L190.799 41.8528C190.824 41.9179 190.865 41.9668 190.865 42.032C190.93 43.295 190.938 44.0039 190.93 45.275C190.93 45.992 190.832 46.3913 190.832 47.1083C190.832 47.3283 190.742 47.4505 190.734 47.6624C190.628 49.3491 190.611 50.3024 190.538 51.9809C190.522 52.2824 190.44 52.4617 190.44 52.7632C190.44 55.5091 190.464 57.0572 190.538 59.8032C190.587 61.4409 190.66 62.3617 190.775 63.9913C190.873 65.4987 190.963 66.3461 191.077 67.8536C190.963 68.4484 191.159 68.8558 190.873 69.3936C190.734 69.6625 190.489 69.7032 190.236 69.8825C189.885 70.1432 189.664 70.2736 189.247 70.4039C185.376 70.2247 183.203 70.1106 179.348 69.8906H169.971L166.72 69.7521L163.968 70.2084H163.633C163.38 70.2084 163.249 70.3062 162.996 70.3062C161.517 70.3387 160.684 70.2002 159.206 70.3062C157.768 70.4121 156.992 70.8602 155.547 70.8602H155.244C154.95 70.8602 154.795 70.958 154.509 70.9906C154.338 71.0069 154.24 70.9987 154.076 70.9906C153.137 70.901 152.622 70.7706 151.691 70.5995C151.381 70.5424 151.193 70.355 150.883 70.4447C148.661 71.0802 147.272 70.461 144.961 70.4447C144.455 70.3062 144.136 70.3224 143.605 70.3143C141.408 70.2817 140.166 70.2817 137.969 70.3143C137.054 70.3224 136.548 70.3958 135.633 70.4365L132.962 70.2736H129.769C128.846 70.3469 127.865 70.5669 126.73 70.6076C126.518 70.6076 126.403 70.6891 126.191 70.7054C125.734 70.7543 124.999 70.6484 124.999 70.6484C124.843 70.6239 124.672 70.6076 124.476 70.6076H123.978L120.67 70.0699H120.237C118.726 70.0699 117.901 69.7765 116.398 69.6299C116.046 69.5973 115.826 69.5239 115.483 69.6299L110.737 69.5158C109.831 69.475 109.324 69.4262 108.418 69.4099C107.111 69.3936 101.083 69.5891 100.47 69.5565C99.2532 69.4995 98.5671 69.5158 97.3501 69.4913C96.7457 69.5565 96.4026 69.5973 95.7982 69.5973C95.7247 69.5973 95.7002 69.5321 95.6267 69.5321C95.2428 69.5321 95.0386 69.6299 94.6547 69.6299H88.8473L86.2254 69.7602C86.16 69.7928 86.111 69.8254 86.0457 69.8254C84.7633 69.8906 84.0364 69.8988 82.7377 69.8906C82.0107 69.8906 81.6023 69.7928 80.8672 69.7928C80.6467 69.7928 80.5242 69.7032 80.3036 69.695C78.5884 69.5891 77.6164 69.5728 75.893 69.4913C75.5826 69.4832 75.4029 69.3936 75.0925 69.3936C72.2909 69.3936 70.7145 69.418 67.9129 69.4913C66.2466 69.5402 66.4998 69.1899 64.8336 69.3039C63.5512 69.3854 58.4871 69.2062 56.7555 68.8965C56.4043 68.8395 56.1919 68.7662 56.1756 68.701C56.2083 68.0247 57.1557 66.8921 57.1884 66.2973H64.8336V64.9773C65.2338 65.0098 65.585 65.018 66.0751 65.018C67.7822 65.0343 69.1626 65.0343 70.5021 65.0343C71.1065 65.0343 71.6946 65.0343 72.3072 65.0343C73.5243 65.0343 74.7903 65.0261 76.3177 65.0343C78.8416 65.0343 80.2628 65.0832 82.7867 65.1321C82.8194 65.0995 82.8439 65.0669 82.8847 65.0669C82.9745 65.0669 83.0154 65.1321 83.0971 65.1321C85.3841 65.0832 86.6664 64.9773 88.9535 65.0017C89.5497 65.0017 89.8764 65.1402 90.4645 65.1402C91.7387 65.1402 92.4575 65.1402 93.7317 65.1402C93.8542 65.1728 93.9114 65.238 94.0257 65.238C94.2136 65.238 94.3198 65.181 94.4995 65.1402C95.8717 65.1647 96.6476 65.1402 98.0117 65.2054C98.1097 65.2054 98.1587 65.2706 98.2567 65.2706C98.9837 65.2706 99.3921 65.1728 100.119 65.1728H101.263C101.9 65.1728 102.259 65.0017 102.896 65.0017C103.321 65.0017 103.558 65.1321 103.982 65.1321H104.481C105.199 65.1321 105.608 65.2461 106.327 65.3032C107.413 65.3765 108.034 65.4661 109.128 65.4661H111.138C112.077 65.4661 112.616 65.5884 113.547 65.6373C113.947 65.6617 114.168 65.6373 114.568 65.6373C114.666 65.6373 114.707 65.7024 114.805 65.7024H118.17L121.094 65.4987C122.132 65.4987 122.72 65.6698 123.716 65.9713C123.888 66.0202 123.945 66.1587 124.116 66.2076C124.443 66.2973 124.713 66.2647 124.982 66.3217C124.982 66.3217 125.26 66.3624 125.431 66.3298L128.494 66.2402V66.1261C128.494 66.1261 128.56 66.1913 128.666 66.2321H128.903C129.328 66.0691 129.711 66.2728 130.087 66.3462C130.234 66.3624 130.414 66.3787 130.659 66.395C131.206 66.4358 131.517 66.4847 132.072 66.558C132.252 66.5824 132.333 66.721 132.521 66.721C132.676 66.721 132.766 66.6558 132.921 66.6558C133.395 66.6558 133.665 66.7861 134.147 66.7861C134.269 66.7861 134.334 66.721 134.449 66.721C135.037 66.721 135.364 66.8513 135.96 66.8513L138.778 66.721C139.031 66.7861 139.186 66.8187 139.448 66.8187C139.603 66.8187 139.693 66.7291 139.848 66.721C140.624 66.6721 141.073 66.6721 141.857 66.6884C142.527 66.7047 142.894 66.8839 143.572 66.8839H144.005C144.504 66.8839 144.781 67.0306 145.279 67.0469H147.313C147.787 67.0306 148.187 67.0143 148.571 67.0061C148.571 67.0061 150.229 66.9491 151.577 66.8921C152.933 66.835 153.407 67.1854 153.978 67.161C154.55 67.1284 155.146 67.0143 155.391 66.9899C155.628 66.9573 156.11 66.9573 156.592 66.9002C156.625 66.9002 156.666 66.8839 156.706 66.8676C156.837 66.8676 156.976 66.8595 157.139 66.8595C157.474 66.8595 157.654 66.6965 157.989 66.6965C158.422 66.6965 158.667 66.7373 159.091 66.6965C160.406 66.5824 161.15 66.4684 162.465 66.3298C162.865 66.3298 163.094 66.3624 163.486 66.3298C163.853 66.2973 164.049 66.1343 164.425 66.1343C164.768 66.1343 164.964 66.1017 165.299 66.0691C165.332 66.0691 165.364 66.061 165.389 66.0447C165.838 65.9306 166.165 65.7839 166.671 65.7839C167.21 65.7839 167.57 65.8165 167.815 65.7513C168.06 65.6943 168.329 65.6047 168.689 65.6047C168.754 65.6047 168.836 65.6047 168.934 65.5802C169.032 65.5965 169.13 65.6128 169.252 65.6128C169.898 65.6128 170.273 65.5558 170.91 65.6128C171.605 65.678 171.997 65.7758 172.691 65.8736C172.797 65.8247 172.846 65.7595 172.961 65.7432C174.259 65.7676 174.994 65.7432 176.285 65.8084C176.375 65.8084 176.424 65.8736 176.522 65.8736C177.265 65.8736 177.69 65.7758 178.433 65.8084C179.062 65.841 179.43 65.8898 180.042 65.7758C181.937 65.7921 183.007 65.8084 184.902 65.8084C185.163 65.5313 185.899 65.6047 186.103 65.2869C186.135 65.2299 186.233 65.2217 186.274 65.181C186.356 65.1973 186.446 65.2054 186.527 65.2054C186.862 65.2054 186.903 64.8143 186.96 64.4965C187.156 63.535 187.246 63.3395 187.361 62.3617C187.45 61.6528 187.459 61.2454 187.459 60.5365C187.499 56.6172 187.459 55.4846 187.459 51.5654C187.459 49.0883 187.499 47.7031 187.548 45.2261C187.516 45.1935 187.483 45.1691 187.483 45.1283C187.483 45.0468 187.548 45.0061 187.548 44.9165C187.499 42.6757 187.393 41.4128 187.418 39.1802C187.418 38.5935 187.557 38.2757 187.557 37.689C187.557 36.4424 187.557 35.7416 187.557 34.4868C187.589 34.3727 187.663 34.3157 187.663 34.1935C187.663 34.0061 187.606 33.9083 187.557 33.7209C187.581 32.3764 187.557 31.6187 187.622 30.2742C187.622 30.1846 187.687 30.1357 187.687 30.0298C187.687 29.3209 187.589 28.9135 187.589 28.2046C187.589 27.9112 187.843 27.6424 187.655 27.4875C187.532 27.3898 187.589 27.2431 187.589 27.0883C187.589 26.4609 187.418 26.1105 187.418 25.4831C187.418 25.0675 187.548 24.8312 187.548 24.4157V23.9349C187.548 23.226 187.671 22.8268 187.72 22.126C187.794 21.0586 187.883 20.4557 187.883 19.372V17.4001C187.883 16.4794 188.006 15.9579 188.063 15.0371C188.088 14.6542 188.063 14.426 188.063 14.0349C188.063 13.9453 188.128 13.9045 188.128 13.8068V10.5068L187.924 7.64675C187.924 6.62823 188.096 6.40823 188.398 5.43045C188.447 5.26749 188.235 5.21045 188.275 5.04749C188.398 4.57489 188.275 4.24082 188.545 3.81711V3.65415C188.422 3.62971 188.382 3.52378 188.259 3.52378C187.875 3.52378 187.655 3.62156 187.271 3.62156C187.197 3.62156 187.173 3.57267 187.107 3.55637C186.92 3.52378 186.813 3.52378 186.617 3.52378C186.47 3.52378 185.335 3.72749 185.131 3.46674H184.494C184.077 3.46674 183.848 3.36897 183.44 3.36897C183.17 3.36897 182.999 3.39341 182.762 3.40156C182.476 3.38526 181.782 3.34452 181.447 3.34452C181.03 3.34452 180.549 3.4586 179.887 3.61341C179.764 3.646 179.666 3.65415 179.577 3.67045L179.397 3.65415C179.397 3.65415 179.34 3.63786 179.307 3.63786H179.266H179.225C179.16 3.61341 179.111 3.58082 179.038 3.57267C178.564 3.50748 178.278 3.54008 177.796 3.54008C177.151 3.54008 176.791 3.40971 176.154 3.40971H171.319C170.927 3.40971 170.674 3.62971 170.518 3.93934H168.721C166.443 3.82526 165.152 3.71934 162.881 3.63786C160.921 3.57267 159.81 3.54008 157.85 3.54008C157.809 3.54008 157.776 3.54008 157.736 3.54823C157.409 3.54008 156.976 3.51563 156.731 3.49934C156.372 3.46674 156.037 3.6786 155.62 3.646C155.277 3.62156 154.975 3.73563 154.558 3.77637C154.142 3.73563 153.848 3.70304 153.39 3.71119C152.263 3.75193 151.626 3.646 150.507 3.59711C146.766 3.426 144.651 3.34452 140.91 3.53193C140.828 3.53193 140.787 3.59711 140.705 3.59711C140.607 3.59711 140.558 3.54823 140.469 3.53193C138.639 3.55637 137.602 3.60526 135.772 3.59711C135.666 3.59711 135.617 3.53193 135.519 3.53193C135.445 3.53193 135.413 3.59711 135.339 3.59711C134.71 3.59711 134.351 3.54823 133.73 3.53193C133.55 3.53193 133.444 3.43415 133.256 3.43415C132.954 3.43415 132.783 3.53193 132.48 3.53193C131.998 3.53193 131.713 3.28748 131.239 3.28748C130.569 3.28748 130.218 3.17341 129.548 3.17341C129.319 3.17341 129.809 3.10822 129.573 3.10822C129.475 3.10822 129.434 3.17341 129.336 3.17341C128.764 3.17341 129.042 3.14082 128.47 3.17341V3.14897L127.024 3.206L124.958 3.14082C124.958 3.14082 124.092 3.40971 123.52 3.43415C123.226 3.43415 123.022 3.34452 122.752 3.46674C122.515 3.58082 122.499 3.90674 122.238 3.90674C122.123 3.90674 122.066 3.84156 121.952 3.84156C121.405 3.84156 121.094 3.82526 120.555 3.77637C119.885 3.70304 119.485 3.79267 118.832 3.60526C117.46 3.58082 116.675 3.60526 115.311 3.54008C115.246 3.54008 115.205 3.50748 115.14 3.47489C113.923 3.54008 113.229 3.62156 112.003 3.63786C109.806 3.6786 108.565 3.60526 106.359 3.63786C105.673 3.646 105.338 3.98008 104.652 4.00452H99.8495C98.5998 4.00452 97.8973 4.14304 96.6477 4.20823C94.5403 4.31415 93.3478 3.61341 91.2405 3.72749C90.6851 3.76008 90.3747 3.866 89.8193 3.866C89.0433 3.866 88.6431 4.23267 87.8671 4.23267H87.2709C85.8088 4.23267 84.992 4.06156 83.53 4.02897C82.7867 4.01267 82.3701 3.79267 81.6268 3.79267C81.2184 3.79267 80.9979 3.82526 80.5895 3.79267C80.2955 3.76823 80.1158 3.74378 79.8217 3.69489L75.8521 3.56452H72.5768C72.5359 3.56452 72.4869 3.56452 72.4543 3.56452C71.8988 3.56452 71.3924 3.61341 70.9269 3.6786C70.837 3.68674 70.7472 3.70304 70.6573 3.71934C70.2979 3.77637 69.9549 3.83341 69.5955 3.89045L69.62 3.2386C68.6153 3.2386 68.0517 3.206 67.0471 3.2386C66.7449 3.24674 66.5407 3.14897 66.2793 3.27119C66.0914 3.36082 66.0424 3.58897 65.8873 3.67045C65.7974 3.646 65.7076 3.62971 65.5932 3.62971H64.7927V1.20155H57.0986C57.0986 1.20155 57.1721 1.14452 57.2129 1.11192C57.5886 0.834886 57.8582 0.614886 58.2911 0.582293C58.3319 0.582293 58.3728 0.582293 58.4136 0.582293C58.773 0.582293 58.9854 0.582293 59.3447 0.5497C59.8838 0.492663 60.186 0.41933 60.7333 0.41933C61.354 0.41933 61.8033 0.41933 62.3015 0.451922C62.5547 0.468219 62.8161 0.492663 63.1265 0.525256C63.6574 0.582293 63.9596 0.720812 64.4987 0.720812H65.1685C65.7892 0.720812 66.263 0.582293 66.7612 0.476367C67.1043 0.403033 67.4555 0.337848 67.8802 0.337848C68.1988 0.337848 68.3703 0.451922 68.6807 0.468219C69.4975 0.517108 70.1836 0.574145 70.837 0.623034C71.0494 0.63933 71.2617 0.655626 71.4741 0.663775C72.3317 0.720812 73.1894 0.753404 74.2839 0.753404H81.3001C81.3001 0.753404 83.4565 0.891923 83.5626 0.720812L86.4704 0.81859L90.5544 0.614886L98.3139 1.01415C100.086 1.06303 101.083 1.14452 102.855 1.15266C103.672 1.15266 104.129 1.08748 104.946 1.05489C105.003 1.07933 105.036 1.12007 105.093 1.12007C105.624 1.12007 105.91 1.02229 106.433 0.94896C106.768 0.900071 106.98 0.981553 107.299 0.883775C107.797 0.737108 108.042 0.41933 108.573 0.41933H116.087C116.635 0.288959 116.961 0.288959 117.525 0.280811C119.444 0.248218 120.522 0.3297 122.434 0.280811C123.447 0.256366 126.207 0.517108 126.942 0.517108H127.98C128.347 0.517108 128.552 0.647478 128.919 0.647478C129.18 0.647478 129.385 0.680071 129.613 0.696367H129.981C129.981 0.696367 130.063 0.696367 130.095 0.688219L131.19 0.696367C131.672 0.565997 131.974 0.598589 132.48 0.598589C132.578 0.598589 132.636 0.541552 132.734 0.533404C133.387 0.451922 133.755 0.403033 134.408 0.403033C134.727 0.403033 134.906 0.435626 135.233 0.435626C136.099 0.435626 136.564 0.826738 137.43 0.826738H140.077C140.534 0.826738 140.771 0.997849 141.22 1.08748C141.882 1.226 142.274 1.25044 142.952 1.25044C143.589 1.25044 143.94 1.08748 144.577 1.08748C147.419 1.08748 149.02 1.08748 151.863 1.08748C154.428 0.989701 155.873 0.891923 158.438 0.826738C159.524 0.794145 160.137 0.769701 161.223 0.826738C162.261 0.883775 162.832 1.12007 163.87 1.15266C164.515 1.17711 164.874 1.15266 165.511 1.15266C166.508 1.15266 167.063 0.900071 168.06 0.900071H170.714C172.111 0.94896 172.903 1.02229 174.3 1.02229C175.46 1.02229 176.113 0.957109 177.265 0.924516C177.379 0.867479 177.453 0.826738 177.584 0.826738H178.025C179.242 0.826738 179.895 0.476367 181.112 0.403033L185.809 0.533404L188.627 0.272663C188.953 0.0608103 189.247 0.223774 189.631 0.272663C190.105 0.3297 190.375 0.394885 190.84 0.468219C191.102 0.508959 191.306 0.476367 191.477 0.663775C191.771 0.981553 191.877 1.25044 191.91 1.67415C191.943 2.03267 191.943 2.24452 191.91 2.58674C191.837 3.27934 191.975 3.6623 191.975 4.35489" fill="#12110C"></path><path d="M67.0716 4.06971C66.5979 4.04526 66.3283 3.76823 65.9281 3.67045C66.0751 3.58082 66.1323 3.36082 66.312 3.27119C66.5815 3.14896 66.7776 3.24674 67.0798 3.23859C68.0844 3.206 68.648 3.23859 69.6527 3.23859L69.6282 3.89045C68.8522 4.01267 68.0599 4.1186 67.0634 4.06971M70.8452 1.14452L64.8254 1.40526L51.3565 1.98378L28.4047 2.93711L8.22172 1.73933L1.76906 1.97563L1.65471 10.6779L1.29532 26.1838L2.37348 32.9794L5.00356 31.309L14.5682 29.7609L24.0103 28.6853L41.457 34.772H48.9878L60.9375 35.9616L70.1428 35.1224L70.0284 14.7357L70.7063 3.71119L70.8615 1.13637L70.8452 1.14452Z" fill="#FFFFFF"></path><path d="M2.94523 24.2527C2.96973 23.7557 3.11675 23.4787 3.11675 22.9898V22.5579C3.11675 21.8898 3.29645 21.5231 3.32095 20.8549C3.33729 20.0809 3.32912 19.6327 3.28828 18.8586C3.28828 18.7038 3.19026 18.6224 3.19026 18.4594C3.19026 18.1986 3.22294 18.0438 3.28828 17.7912L3.15759 14.9964C3.15759 14.4097 3.28828 14.0838 3.28828 13.4972C3.28828 13.3831 3.22294 13.3179 3.22294 13.2038C3.22294 12.7312 3.35362 12.4623 3.35362 11.9897C3.35362 11.8349 3.28828 11.7534 3.28828 11.5905C3.28828 11.4031 3.4353 11.3216 3.45981 11.1423C3.53332 10.5964 3.58232 10.2868 3.62316 9.74085C3.6395 9.49641 3.65584 9.32529 3.67217 9.17048C3.74568 8.80381 3.94988 8.4127 3.78652 7.99714V7.76085C3.82736 7.66307 3.86003 7.61418 3.89271 7.58973H3.77835L3.68034 4.55047C3.60683 4.10232 3.60683 4.56677 3.60683 4.11047C3.60683 3.9801 3.72118 3.93121 3.77835 3.80899H4.08874L6.67797 3.47491C6.75148 3.5075 6.80049 3.5401 6.88217 3.5401C6.98835 3.5401 7.02919 3.44232 7.13537 3.44232H9.16918C9.75728 3.44232 10.0268 3.84973 10.6067 3.87417C12.7631 3.9801 13.9883 4.07788 16.1446 4.07788H19.4199L23.3895 4.20825C23.6836 4.26528 23.8551 4.28973 24.1573 4.30602C24.5657 4.33862 24.7863 4.30602 25.1865 4.30602C25.9298 4.30602 26.3463 4.52603 27.0896 4.54232C28.5517 4.57491 29.3685 4.74603 30.8305 4.74603H31.4349C32.2109 4.74603 32.6111 4.37936 33.3871 4.37936C33.9425 4.37936 34.2529 4.27343 34.8083 4.24084C36.9156 4.12677 38.1081 4.11047 40.2155 4.00454C41.4652 3.93936 42.1676 3.80084 43.4173 3.80084H48.2282C48.9061 3.76825 49.2492 3.44232 49.9271 3.43417C52.1243 3.40158 53.374 3.47491 55.5712 3.43417C56.7963 3.40973 57.4906 3.33639 58.7076 3.27121C58.773 3.3038 58.8057 3.33639 58.871 3.33639C60.2432 3.40158 61.0192 3.37713 62.3914 3.40158C63.0366 3.58084 63.445 3.49936 64.1148 3.56454C64.3925 3.59713 64.6131 3.61343 64.8336 3.62158C64.9316 3.62158 65.0378 3.62973 65.144 3.62973C65.2583 3.62973 65.3808 3.62973 65.5197 3.62973C65.634 3.62973 65.6912 3.69491 65.8056 3.69491C65.8546 3.69491 65.8954 3.68676 65.9281 3.66232C66.0751 3.57269 66.1323 3.35269 66.312 3.26306C66.5734 3.14084 66.7776 3.23861 67.0798 3.23047C68.0844 3.19787 68.648 3.23047 69.6527 3.23047L69.6282 3.88232L69.5383 6.86455L69.5873 7.58159H69.5628C69.6037 8.16011 69.5628 7.87492 69.5628 8.44529C69.5628 8.54307 69.6282 8.58381 69.6282 8.68159C69.6282 8.90974 69.5628 8.429 69.5628 8.65714C69.5628 9.32529 69.7343 9.69196 69.7343 10.352C69.7343 10.8327 69.5628 11.0853 69.5628 11.566C69.5628 11.8675 69.6608 12.0305 69.6608 12.332C69.6608 12.5112 69.5628 12.6172 69.5628 12.7964C69.5465 13.4238 69.4975 13.7742 69.4975 14.3935C69.4975 14.4668 69.5628 14.4994 69.5628 14.5727C69.5628 14.6705 69.4975 14.7275 69.4975 14.8172C69.4975 16.6423 69.5383 17.6609 69.5628 19.4861C69.5383 19.5757 69.4975 19.6246 69.4975 19.7224C69.4975 19.8038 69.5628 19.8446 69.5628 19.9261C69.7507 23.6416 69.669 25.7357 69.4975 29.4513C69.4485 30.5676 69.3423 31.2031 69.3831 32.3113C69.3995 32.8409 69.3504 33.1505 69.3014 33.6802C69.2851 33.8105 69.3341 33.9246 69.2361 34.0142C69.0972 34.1446 68.9257 34.0468 68.7379 34.0794C68.1334 34.2016 67.7822 34.2668 67.1696 34.3157C65.9363 34.4135 65.242 34.4624 64.0005 34.5113C63.1673 34.5439 62.6936 34.5113 61.8605 34.5113C61.5174 34.5113 61.2397 34.4787 61.0273 34.2179C60.8803 34.0305 60.8803 33.8594 60.7251 33.6883C59.8512 32.6779 59.6633 31.8794 59.1242 30.6572C58.3156 28.8076 57.8827 27.6261 56.388 26.2572C54.8115 24.815 53.5537 24.3424 51.5117 23.7231C49.6086 23.1446 48.6039 22.4438 46.6028 22.289C45.8677 22.232 45.4674 22.3216 44.7323 22.3216C43.4745 22.3216 42.7394 22.4683 41.5632 22.8838C41.0894 23.0468 40.7872 23.0224 40.2971 23.1527C38.8596 23.5357 38.0428 23.8942 36.8584 24.7824C35.5516 25.7601 34.7021 26.1838 33.5178 27.3164C32.7336 28.0661 32.3171 28.5305 31.4513 29.1824C31.2144 29.3535 31.0674 29.4594 30.8142 29.6142C30.6835 29.6957 30.6508 29.8505 30.4956 29.8505C30.2751 29.8505 30.1934 29.6631 29.9729 29.6142C29.4011 29.492 29.0744 29.3698 28.5027 29.215C26.5995 28.6935 25.5132 28.4409 23.5611 28.115C23.1037 28.0416 22.8423 27.952 22.3767 27.952C21.9602 27.952 21.7396 28.0661 21.3231 28.0824C21.0208 28.0905 20.8575 28.0172 20.5553 28.0172C19.9427 28.0172 19.6078 28.2209 19.0034 28.2209C18.8645 28.2209 18.8155 28.3268 18.6848 28.3513C18.1784 28.4735 17.868 28.4653 17.3534 28.555C16.847 28.6364 16.553 28.555 16.0466 28.6527C14.7642 28.8972 14.0454 29.1416 12.7386 29.2883C11.3664 29.435 10.6067 29.6957 9.23453 29.8831C8.34422 30.0053 7.85415 30.1113 6.96385 30.1846C6.79232 30.1927 6.6943 30.1113 6.53095 30.152C5.7795 30.3231 5.33026 30.3965 4.56248 30.4861C4.23576 30.5187 4.06423 30.6816 3.72935 30.6816C3.31278 30.6816 3.14126 30.6246 3.11675 30.2172C3.01874 28.6772 3.01057 27.8135 2.94523 26.2735V24.2609V24.2527ZM72.634 68.595C72.7075 68.1306 72.5114 68.3669 72.5686 67.9025C72.6176 67.5195 72.7401 67.6173 72.5196 67.2913V67.2751L72.3072 65.0424L72.2501 64.4965L72.3808 59.8358C72.2991 58.6298 71.9479 57.978 71.9479 56.7721V56.3402C71.9479 56.2098 71.907 56.1365 71.8498 56.0224C71.8172 54.8735 71.7437 54.2217 71.7518 53.0728C71.7518 51.6795 71.8335 50.8972 71.8743 49.5039V46.872C71.8743 45.8861 71.6211 45.332 71.613 44.338C71.613 43.7024 71.5966 43.3439 71.613 42.7083C71.6538 41.6735 71.8907 41.1031 71.9479 40.0765C72.0132 39.0009 71.9724 38.3898 71.9479 37.3142C71.8743 34.7639 71.7845 33.3298 71.6783 30.7876C71.6783 27.9683 71.6865 26.3794 71.6783 23.5601C71.6783 22.9246 71.5068 22.5742 71.5068 21.9468C71.5068 21.2705 71.5313 20.8875 71.6783 20.2275C71.7763 19.7875 71.9397 19.5512 71.9397 19.0949V16.4631C71.9397 15.6075 72.3399 15.1431 72.3399 14.2794C72.3399 13.9616 72.3726 13.7823 72.3726 13.4646C72.3726 12.8209 72.3154 12.446 72.2419 11.8023C72.2419 11.7046 72.1766 11.6557 72.1766 11.5497C72.1766 11.0527 72.2092 10.7431 72.0785 10.2705V9.18678H72.0867C72.0867 9.18678 72.0867 9.11344 72.0785 9.0727V8.70603C72.0949 8.47788 72.1357 8.28233 72.1357 8.01344C72.1357 7.64677 72.2746 7.44307 72.2746 7.08455V6.05788C72.2746 5.32454 72.4298 4.91714 72.4379 4.19195C72.4379 3.88232 72.4624 3.70306 72.4706 3.56454C72.5033 3.2875 72.5441 3.19787 72.5033 2.56232C72.5033 2.46454 72.4788 2.34232 72.4461 2.2038C72.3726 1.85343 72.2419 1.42157 72.1357 1.20157C72.005 0.924536 71.7682 0.737128 71.4904 0.655646C71.2862 0.590461 71.0739 0.574165 70.8533 0.614906C70.739 0.631202 70.6328 0.655646 70.5266 0.704535C70.2081 0.826758 69.816 1.07935 69.4321 0.598609C68.403 0.663795 67.676 0.517128 66.7857 0.476387C66.5325 0.46009 66.2711 0.451942 65.9771 0.46009C64.5232 0.500831 63.5512 0.46009 62.3342 0.46009C61.9421 0.46009 61.5337 0.46009 61.0682 0.468239C60.5046 0.468239 60.186 0.468239 59.6306 0.598609H52.1161C51.5934 0.598609 51.2258 0.500831 50.7194 0.647498C50.4009 0.737128 50.1885 0.663795 49.8536 0.712684C49.3309 0.786017 49.045 0.883795 48.5141 0.883795C48.4569 0.883795 48.4242 0.834906 48.3671 0.81861C47.5503 0.859351 47.0929 0.916388 46.2761 0.916388C44.5036 0.916388 43.5071 0.834906 41.7347 0.786017L34.0977 0.802313L30.0056 1.00602L27.1059 0.90824C26.9998 1.0875 24.8026 1.16898 24.8026 1.16898H17.7863C15.5973 1.16898 14.364 1.02231 12.1831 0.883795C11.8646 0.867499 11.7012 0.753424 11.3827 0.753424C10.3454 0.753424 9.75727 0.54972 8.71178 0.54972H8.04201C7.50293 0.54972 7.20888 0.769721 6.67797 0.712684C5.75499 0.614906 5.22408 0.606757 4.29293 0.606757C3.74568 0.606757 3.44347 0.680091 2.91255 0.737128C2.55317 0.777869 2.3408 0.769721 1.97324 0.769721C1.45866 0.769721 1.18095 1.00602 0.772559 1.29935C0.445842 1.53565 0.200804 1.7312 0.135461 2.13046C0.119125 2.29343 0.102789 2.39121 0.102789 2.56232C0.143629 3.62158 0.192636 4.23269 0.306987 5.29195C0.331491 5.50381 0.405002 5.61788 0.405002 5.82158C0.445842 6.94603 0.674544 7.92381 0.748055 8.8364V12.006L0.576528 14.6542C0.625536 15.5586 0.699047 16.0638 0.707215 16.9683C0.739887 19.152 0.748055 20.3824 0.707215 22.5661C0.707215 23.0957 0.715383 23.4053 0.576528 23.9105C0.552025 26.2083 -0.0769054 27.5853 0.576528 29.7853C0.666376 30.0868 0.470345 30.2742 0.41317 30.5839C0.241644 31.4965 0.094621 32.0179 0.0129417 32.9468C0.00477381 33.1098 -0.011562 33.2076 0.0129417 33.3787C0.0456134 33.6639 0.143629 33.8187 0.143629 34.112V34.4053C0.143629 35.8394 0.601032 36.6054 0.707215 38.0313C0.813398 39.498 0.674544 40.3291 0.707215 41.7957C0.707215 42.0483 0.80523 42.1787 0.80523 42.4313V42.7654L1.27897 45.495L1.13195 48.7217V58.035C0.911413 61.8647 0.797062 64.0239 0.6092 67.8617C0.739887 68.2773 0.878742 68.4973 1.14012 68.8395C1.32798 69.0839 1.36882 69.3284 1.64653 69.4751C2.19378 69.7521 2.61034 69.5565 3.21477 69.6788C4.75034 69.5565 5.61614 69.4751 7.15171 69.3773C8.81796 69.2632 9.75727 69.1899 11.4235 69.141C14.2251 69.0595 15.8015 69.0432 18.6031 69.0432C18.9217 69.0432 19.1014 69.1328 19.4036 69.141C21.1189 69.2143 22.099 69.2388 23.8143 69.3447C24.0348 69.3528 24.1573 69.4425 24.3779 69.4425C25.1048 69.4425 25.5132 69.5321 26.2483 69.5402C27.5388 69.5484 28.2658 69.5402 29.5563 69.4751C29.6217 69.4751 29.6707 69.4343 29.736 69.4099L32.3579 69.2795H38.1653C38.5492 69.2795 38.7534 69.1817 39.1373 69.1817C39.2026 69.1817 39.2271 69.2469 39.3007 69.2469C39.9051 69.2469 40.2481 69.2143 40.8526 69.1491C42.0696 69.1736 42.7557 69.1573 43.9727 69.2143C44.5853 69.2388 44.9365 69.2551 45.5491 69.3121C46.0555 69.3691 46.3414 69.4506 46.8478 69.5158C47.3052 69.5728 47.5748 69.6136 48.0322 69.6136C48.4487 69.6136 48.3426 69.0432 48.5794 68.7173C49.8781 68.7173 50.6132 68.6928 51.9201 68.7173C52.8267 68.7254 53.4475 68.6358 54.346 68.6765L56.7392 68.9128L58.2993 69.0676C58.8873 69.035 59.6551 69.1165 60.0063 69.1491C61.5011 69.2876 62.5384 68.8395 64.0413 68.8395H64.4742L67.7822 69.3691H68.2804C68.9911 69.3691 69.3831 69.2306 70.0856 69.3121C70.445 69.3447 71.0249 69.3447 71.3843 69.3121C71.8172 69.2795 72.2582 69.1491 72.5768 68.8558C72.7728 68.6847 72.5768 68.8558 72.6176 68.6032" fill="#12110C"></path><path d="M24.4922 29.4838C25.1947 29.4838 25.5949 29.7364 26.1585 30.152C26.9018 30.6979 27.5062 30.706 28.3311 31.1542C28.7967 31.4068 29.0499 31.7246 29.5808 31.7246C30.3078 31.7246 30.6508 32.1483 31.3369 32.3927C33.0277 33.0038 33.9588 33.452 35.7068 33.8594C38.0755 34.4053 39.3007 35.4238 41.7347 35.4238C42.1023 35.4238 42.3065 35.5379 42.6495 35.6601C42.9517 35.766 43.1641 35.6764 43.4826 35.7253C44.1851 35.8394 44.5771 35.9453 45.2878 35.9942C46.7988 36.1083 47.681 36.0594 49.192 36.2305C50.2702 36.3527 50.8583 36.5564 51.9283 36.7601C52.0753 36.7601 52.2223 36.8172 52.2958 36.6949C52.3612 36.589 52.3203 36.3935 52.4429 36.3935C53.0555 36.3935 53.3822 36.5564 53.9948 36.5564H54.493C54.9259 36.5564 55.1709 36.6298 55.5957 36.6868C55.8162 36.7194 55.9877 36.6868 56.1674 36.8172C55.7999 37.0616 55.5058 37.1186 55.0648 37.1186H54.6645C53.8232 37.1186 53.3495 37.2898 52.5245 37.4527C50.164 37.909 48.8653 38.3409 46.5456 38.9846C44.7732 39.4735 43.7358 39.5957 42.0042 40.2149C41.5877 40.3616 41.3345 40.4431 40.9016 40.549C40.7627 40.5816 40.6484 40.5327 40.534 40.6142C40.3952 40.712 40.4932 40.8994 40.3707 41.0135C40.1338 41.2253 39.9051 41.2253 39.6029 41.3149C39.2843 41.4046 39.1536 41.5757 38.8678 41.7468C38.8188 41.5675 38.7371 41.4698 38.7371 41.2824C38.7371 41.2009 38.7698 41.1601 38.8024 41.0868C38.9739 41.1683 39.0883 41.2172 39.2843 41.2172C39.6519 41.2172 39.611 40.7283 39.7336 40.3861C39.8969 39.9298 40.1338 39.6935 40.1338 39.2046C40.1338 39.009 39.8806 39.0172 39.7336 38.8868C39.2517 38.4468 38.9413 38.2268 38.4349 37.8194C37.8549 37.3549 37.4956 37.1268 36.932 36.6542C35.7395 35.6601 34.9145 35.2853 33.5586 34.5194C31.7127 33.4764 30.6018 33.0364 28.7477 31.9853C28.2495 31.7083 27.8982 31.6594 27.449 31.3171C27.0488 31.0157 26.8282 30.7712 26.33 30.649L21.2741 32.6779C21.127 32.5801 21.1352 32.4172 21.078 32.246C20.931 31.8386 20.8248 31.6105 20.6451 31.2112L19.5098 31.2438V31.309C18.8727 31.3334 18.5051 31.3171 17.8762 31.3742C17.6965 31.3823 17.5495 31.2927 17.4106 31.4068C17.2718 31.5209 17.3453 31.7001 17.3126 31.8712C17.2473 32.1401 17.1493 32.2949 17.1493 32.572V32.8734C17.1493 33.3623 16.9124 33.6231 16.9124 34.1038V34.6009C16.5693 34.8535 16.2916 34.8779 15.9077 35.0653C14.8132 35.6112 14.1761 35.8964 13.1061 36.4668C12.3792 36.8579 11.9136 36.9964 11.1703 37.3631C10.6639 37.6157 10.3617 37.7542 9.83897 37.9661C9.61843 38.0557 9.30805 38.0394 9.30805 38.2838C9.30805 38.9846 9.78996 39.2698 10.0105 39.9298H10.1412L11.2439 39.5631C11.2439 39.5631 11.2929 39.6364 11.3092 39.6772C11.0642 41.5024 10.8926 42.5372 10.6721 44.3542C10.6231 44.7779 10.6721 45.0224 10.6721 45.4542C10.3535 45.5438 10.1657 45.5357 9.83897 45.5846C9.78179 45.1853 9.70828 44.9572 9.70828 44.5498C8.67912 44.509 8.0992 44.4764 7.07004 44.4438C5.94287 44.4031 5.2976 44.4438 4.16226 44.4438C3.90906 44.4438 3.62318 44.3624 3.59051 44.1098C3.55783 43.7757 3.52516 43.5801 3.52516 43.2461C3.52516 42.8794 3.35364 42.6757 3.32096 42.3172C3.28829 41.9261 3.32096 41.6979 3.32096 41.2987C3.18211 39.9949 3.06776 39.2535 2.94524 37.9498C2.9044 37.5261 2.94524 37.2816 2.94524 36.8498C2.94524 36.5157 2.78188 36.3364 2.78188 36.0023C2.78188 35.5949 2.74104 35.3505 2.81455 34.9512C2.83906 34.8127 2.97791 34.7801 3.08409 34.6823C3.5415 34.2831 3.92539 34.226 4.48898 33.9816C5.19142 33.6801 5.59165 33.5009 6.32676 33.2809C7.73981 32.849 8.5321 32.572 9.96965 32.2134C11.979 31.7164 13.098 31.3497 15.1073 30.8853C15.9077 30.6979 16.357 30.486 17.1738 30.486C18.3091 30.486 18.9299 30.2334 20.0489 30.0216C21.4946 29.7446 22.3277 29.6957 23.7898 29.5246C24.0593 29.492 24.2145 29.4594 24.4922 29.4594" fill="#C7E1D6"></path><path d="M68.697 36.2061C68.9829 36.2061 69.1953 36.4587 69.1953 36.7357C69.1953 38.6831 69.1626 39.7831 69.0972 41.7305C69.0156 43.9876 68.9094 45.2668 68.795 47.5239V49.7891C67.9782 49.7891 67.5127 49.8298 66.6959 49.7891C66.1976 49.7728 65.9199 49.6587 65.4298 49.5935C64.6375 49.4876 64.172 49.5446 63.396 49.3898C62.8733 49.292 62.5629 49.1535 62.0238 49.1535C61.4031 49.1535 61.0518 49.0639 60.4556 48.8846C60.0799 48.7705 59.8593 48.5587 59.4754 48.6483C58.773 48.4528 58.3809 48.2491 57.654 48.1431C57.1067 48.0617 56.78 48.1839 56.2164 48.1431C55.2934 48.0861 54.7952 47.8742 53.9131 47.6135C53.0473 47.3528 52.4837 47.3935 51.6424 47.0513C51.0951 46.8313 50.7112 46.9209 50.1395 46.7498C48.5794 46.2854 47.6564 46.1876 46.0637 45.8209C44.9283 45.5602 44.2913 45.2505 43.1232 45.2505C42.4943 45.2505 40.8526 45.0876 40.8526 45.0876C40.485 44.9165 40.2236 44.9735 39.8152 44.9246C39.6764 44.9083 39.5048 44.9898 39.4477 44.8594C39.2271 44.3298 39.1781 43.9713 39.1781 43.3928C39.1781 43.1239 39.5294 43.1402 39.7826 43.0587C40.6075 42.7816 41.0731 42.635 41.9226 42.4231C43.0742 42.1379 43.6787 41.755 44.863 41.6246C46.1372 41.4861 46.8315 41.1683 48.0648 40.8261C48.7183 40.6468 49.143 40.712 49.7638 40.4594C49.9271 40.3942 49.8536 40.1661 50.0006 40.0602C50.1558 39.9461 50.311 39.9787 50.4989 39.9298C52.108 39.4816 53.0228 39.2372 54.6727 38.9683C55.3343 38.8624 55.7345 38.8624 56.3716 38.6668C57.703 38.2676 58.5034 38.2105 59.8103 37.7298C60.3412 37.5424 60.6761 37.5587 61.2152 37.3957C61.5909 37.2816 61.8114 37.1594 62.2035 37.1594C62.277 37.1594 64.123 36.9231 64.7601 36.7601C65.7647 36.4913 66.361 36.4261 67.3983 36.2957C67.9047 36.2305 68.1906 36.1979 68.697 36.1979" fill="#56A887"></path><path d="M26.379 33.3461C26.7384 33.3461 26.8609 33.6476 27.1631 33.8432C27.8574 34.3076 28.274 34.5439 28.9682 35.0084C29.5563 35.4076 29.9075 35.5869 30.5038 35.9698C30.8877 36.2224 31.0756 36.4424 31.5085 36.6054C31.9822 36.7765 32.1129 37.1432 32.5458 37.4039C33.1584 37.7787 33.5749 37.9254 34.0814 38.4387C34.3427 38.6995 34.4162 38.9521 34.7184 39.1721C35.1268 39.4736 35.4454 39.5632 35.7558 39.9706C36.0171 40.321 35.9518 40.6469 35.9518 41.0869C35.9518 41.2661 36.0335 41.3639 36.0498 41.535C36.0907 41.9099 36.1152 42.138 36.1152 42.521C36.1152 43.3276 36.2295 43.7839 36.3847 44.5662C35.5026 44.5417 34.9962 44.4847 34.114 44.501C34.016 44.501 33.967 44.5336 33.8772 44.5662L29.736 44.5336C29.3195 44.5336 29.0826 44.6639 28.666 44.6639C28.6252 44.6639 28.6088 44.6313 28.568 44.6313C28.568 44.6313 28.372 44.5091 28.2658 44.5662C28.2004 44.4765 28.1351 44.4276 28.1351 44.3136C28.1351 44.2158 28.2004 44.1669 28.2004 44.061V42.9936C28.2004 42.0565 27.8819 41.4943 27.302 40.761C26.6159 39.8973 25.9053 39.4247 24.7944 39.4247H24.4595C23.8796 39.4247 23.6346 39.8239 23.12 40.0928C21.9765 40.6958 21.5518 41.7143 21.5518 43.0099C21.5518 43.6862 21.3802 44.061 21.3802 44.7454C21.3802 44.941 21.1025 44.8921 20.9147 44.9247C20.4409 45.0143 20.1795 45.0876 19.6976 45.0876C19.2974 45.0876 19.0769 44.9899 18.6766 44.9899H17.3453C17.2636 44.9899 17.2309 45.055 17.1492 45.055C16.4223 45.055 16.0057 45.0062 15.2788 45.055C14.707 45.0958 14.3803 45.161 13.8086 45.2262V41.3313C13.8086 40.8099 13.9719 40.5247 13.9719 39.995V38.9602C14.9357 38.121 15.6709 37.901 16.847 37.3958C18.1866 36.8173 18.8482 36.3039 20.1877 35.7335C21.854 35.0165 22.7524 34.4543 24.4922 33.9328C25.2273 33.7128 25.6112 33.3298 26.379 33.3298" fill="#FFFFFF"></path><path d="M25.6439 35.6113C25.7827 35.6113 25.8644 35.6602 25.9951 35.7091C25.9951 36.2306 25.8971 36.532 25.8971 37.0535C25.8971 37.2328 25.9624 37.3224 25.9624 37.5017C25.9624 37.6483 25.9134 37.8357 25.7664 37.8357C25.5377 37.8357 25.4233 37.6972 25.1946 37.6728C25.0231 37.6483 24.9169 37.6402 24.7454 37.6402C24.6229 37.6402 24.5575 37.7054 24.4269 37.7054C24.2063 37.7054 23.9286 37.6402 23.9286 37.4202C23.9286 37.1676 24.2635 37.1187 24.2635 36.8661C24.2635 36.5076 23.994 36.3446 23.994 35.9861C23.994 35.7906 24.1982 35.6928 24.3942 35.6683C24.8761 35.6113 25.1538 35.6031 25.6439 35.6031" fill="#26231E"></path><path d="M29.9647 39.0743C30.6508 39.0417 31.0429 39.0987 31.7372 39.1069C31.9169 39.1884 32.1292 39.0987 32.2354 39.2699C32.3661 39.498 32.3007 39.6854 32.3007 39.9543C32.3007 40.2639 32.603 40.378 32.603 40.6876C32.603 41.1276 32.4886 41.3721 32.3007 41.7713C32.2272 41.9262 32.0639 41.9832 32.0639 42.1543C32.0639 42.2765 32.1537 42.3254 32.1946 42.4395C32.072 42.4639 31.9904 42.4721 31.8597 42.4721C31.6636 42.4721 31.5575 42.4069 31.3614 42.4069C31.1899 42.4069 31.1001 42.4395 30.9285 42.4395C30.5446 42.4395 30.3404 42.5862 29.9565 42.6351C29.834 42.6514 29.7442 42.6514 29.6217 42.6351C28.9682 42.5454 29.1316 41.698 29.0581 41.038C29.0091 40.5899 29.0989 40.321 29.0254 39.8728C28.9927 39.6773 28.6905 39.6773 28.6905 39.4736C28.6905 39.3595 28.7477 39.2373 28.8539 39.2373C28.9601 39.2373 29.0417 39.3025 29.1561 39.3025C29.4828 39.3025 29.6298 39.0825 29.9565 39.0662" fill="#26231E"></path><path d="M19.9345 39.7098C20.253 39.7098 20.3184 40.0684 20.4164 40.378C20.5879 40.8995 20.7186 41.2091 20.7186 41.7632V42.1135C20.7186 43.2461 19.2239 43.3765 18.0804 43.3765C17.4514 43.3765 16.7817 43.0587 16.7817 42.4313C16.7817 41.9017 16.9777 41.6165 16.9777 41.0869C16.9777 40.7691 16.9124 40.5898 16.9124 40.2721C16.9124 40.0358 17.1656 39.9217 17.3943 39.9217C17.721 39.9217 17.9007 40.0521 18.2274 40.0521C18.5705 40.0521 18.7665 40.0358 19.1095 39.9869C19.4363 39.938 19.5914 39.718 19.9263 39.718" fill="#26231E"></path><path d="M19.2484 32.5149H19.4118C19.3219 32.7512 19.4118 32.9223 19.4118 33.1831C19.4118 33.3868 19.3056 33.5742 19.1095 33.6149C18.938 33.6557 18.7665 33.5823 18.644 33.7127H18.5133V33.0772C18.6031 32.9223 18.595 32.7023 18.7828 32.6779V32.5475C18.8482 32.5964 18.8808 32.6453 18.9707 32.6453C19.0932 32.6453 19.1585 32.5801 19.2566 32.5149" fill="#FFFFFF"></path><path d="M25.1375 40.3372C25.456 40.3372 25.6194 40.5002 25.9216 40.6061C26.1666 40.6876 26.3627 40.6387 26.5587 40.8017C26.7874 41.0054 26.7956 41.2335 26.8609 41.535C26.9589 41.975 27.0978 42.2195 27.0978 42.6676V43.4987C27.0978 43.5802 27.1631 43.6128 27.1631 43.7024V44.1995C27.1631 44.4439 27.1876 44.7047 26.9671 44.8024C26.5342 44.9898 26.232 44.8921 25.7664 44.9654C25.3907 45.0306 25.1865 45.161 24.8026 45.161C24.5085 45.161 24.3452 45.0958 24.0511 45.0958C23.7162 45.0958 23.5366 45.161 23.2017 45.161C22.9158 45.161 22.7769 44.998 22.4992 44.9247C22.4992 44.6802 22.4666 44.5498 22.4666 44.3054C22.4666 43.4417 22.6708 42.9528 22.9975 42.1543C23.1363 41.8121 23.1445 41.5758 23.3324 41.258C23.512 40.9484 23.7571 40.8669 24.0675 40.6876C24.4595 40.4676 24.7046 40.3209 25.1538 40.3209" fill="#FFFFFF"></path><path d="M25.1701 36.2061C25.4642 36.2061 25.456 36.6135 25.456 36.9068C25.456 37.0372 25.3988 37.1024 25.3907 37.2409C25.3335 37.2409 25.3008 37.2735 25.2436 37.2735C25.064 37.2735 24.8271 37.2572 24.8271 37.0779C24.8271 36.7927 24.8843 36.6298 24.8598 36.3446C24.9578 36.255 25.0395 36.2142 25.1783 36.2142" fill="#FFFFFF"></path><path d="M30.7488 39.7424C30.9122 39.7424 30.9775 39.8647 31.1327 39.9054C31.4104 39.9869 31.7371 40.0602 31.7371 40.3536C31.7371 40.6876 31.8515 41.0217 31.5656 41.201C31.3042 41.3721 31.1001 41.3884 30.7978 41.4699C30.5691 41.5269 30.463 41.6654 30.2261 41.6654C29.9402 41.6654 29.9075 41.315 29.8585 41.0299C29.8177 40.7773 29.7278 40.6387 29.7278 40.378C29.7278 39.9054 30.2751 39.7261 30.7488 39.7261" fill="#FFFFFF"></path><path d="M18.4643 40.541C19.0524 40.541 19.5833 40.9728 19.5833 41.5595C19.5833 41.9995 19.4689 42.5454 19.036 42.5454C18.9462 42.5454 18.9053 42.4884 18.8155 42.4802C18.5378 42.4476 18.3744 42.4476 18.0967 42.4476C17.8844 42.4476 17.7782 42.2113 17.7782 41.9995C17.7782 41.3721 17.8353 40.5491 18.4643 40.5491" fill="#FFFFFF"></path><path d="M37.4465 45.9675C38.345 45.9675 38.8432 46.1794 39.7172 46.3668C40.3216 46.4972 40.7219 46.4809 41.2528 46.7986C41.4406 46.9046 41.5958 46.8638 41.7837 46.9616C42.2574 47.2305 42.527 47.4179 43.0497 47.5646C43.5071 47.6868 43.7522 47.866 44.1197 48.1675C44.2994 48.3061 44.4056 48.469 44.6343 48.469C44.8222 48.469 44.9038 48.3386 45.0835 48.3386C45.4593 48.3386 45.6226 48.5831 45.982 48.6727C46.9132 48.909 47.4359 49.0883 48.3834 49.2757C49.6984 49.5283 50.4825 49.5201 51.7567 49.9438C52.6634 50.2453 53.2515 50.1557 54.1581 50.4409C55.7754 50.9624 56.7637 51.109 58.4626 51.109C59.018 51.109 59.3284 51.1742 59.8838 51.1742C60.8885 51.1742 61.3949 51.6224 62.375 51.8424C64.4579 52.3068 65.634 52.6246 67.7169 53.1053C68.1906 53.2112 68.4111 53.4475 68.8849 53.5698L69.0891 58.0513C69.0646 58.4424 68.6072 58.4831 68.2233 58.532C68.0191 58.5646 67.8966 58.5646 67.6924 58.5646C67.578 58.5646 67.5208 58.4994 67.4065 58.4994C67.3085 58.4994 67.2513 58.5646 67.1533 58.5646C66.4263 58.6135 66.0179 58.6461 65.2828 58.6298C64.3108 58.6053 63.7881 58.2957 62.8161 58.2957H62.3832C61.9503 58.2957 61.6563 58.4016 61.2805 58.1979C61.0763 58.0839 61.0355 57.8557 60.815 57.8313C60.284 57.7742 59.9737 57.8394 59.4427 57.7661C59.3529 57.7579 59.3039 57.7009 59.2059 57.7009H58.8383C58.8383 57.7009 56.5105 57.2038 56.437 57.2038C56.3389 57.2038 56.2981 57.1387 56.2001 57.1387H55.8652C55.1546 57.1387 54.7625 57.0083 54.0601 56.8698C52.8512 56.6335 52.1243 56.772 50.9236 56.5357C49.8454 56.3238 49.2247 56.2016 48.122 56.2016C47.5503 56.2016 47.2399 56.0875 46.6845 55.9653C46.0637 55.835 44.2504 55.5661 44.2504 55.5661C44.2504 55.5661 36.1315 53.7327 36.0335 53.7327C34.6613 53.7327 33.9425 53.2112 32.6601 52.6979C32.8807 52.3312 33.2482 52.3557 33.6239 52.1683C34.016 51.9727 34.1794 51.7364 34.5959 51.5979C35.2984 51.3616 35.7149 51.329 36.4337 51.1335C37.5037 50.8401 38.1326 50.7831 39.2026 50.5305C39.611 50.4409 39.8479 50.3349 40.2726 50.3349H40.8362C41.2691 50.3349 41.4897 50.172 41.9226 50.172C42.0696 50.172 42.1431 50.2372 42.2901 50.2372C42.674 50.2372 43.1069 50.0742 43.1069 49.6912C43.1069 49.4875 42.8864 49.4549 42.7067 49.3735C42.2738 49.1779 42.0287 49.0475 41.5713 48.909C41.4243 48.8683 41.3835 48.7461 41.2691 48.6401C41.1303 48.5098 40.9424 48.6401 40.7709 48.5423C40.5912 48.4446 40.5095 48.2735 40.3053 48.2735C39.9704 48.2735 39.8479 47.9964 39.5375 47.8742C38.6881 47.5238 38.1735 47.4098 37.2995 47.1409C36.7359 46.9698 36.3602 47.0349 35.8293 46.7742C35.6578 46.6846 35.6087 46.5298 35.4291 46.4727C35.0288 46.3423 34.7511 46.4646 34.3591 46.3098C34.7021 46.0164 35.0697 46.1468 35.5271 46.1468H36.1315C36.5236 46.1468 36.7523 46.1875 37.1361 46.1142C37.2587 46.0898 37.3077 45.9838 37.4384 45.9838" fill="#007F52"></path><path d="M26.3137 46.3017C26.7956 46.3017 27.0488 46.4728 27.5307 46.4728H28.3638C28.4292 46.4076 28.47 46.3424 28.5598 46.3424H29.1316C29.5727 46.3424 29.8014 46.4891 30.2343 46.5787C31.1654 46.758 31.7453 46.7009 32.603 47.1083C33.3462 47.4587 33.82 47.5972 34.6368 47.7113C35.7394 47.858 36.3765 47.9639 37.4384 48.2817C38.2388 48.518 38.6799 48.7054 39.4722 48.9498C39.7499 49.0313 40.142 48.9987 40.142 49.2839C40.142 49.6017 39.6927 49.5854 39.3742 49.5854C39.1536 49.5854 39.0965 49.8543 38.8759 49.8869C38.4594 49.9439 38.2143 49.8543 37.8059 49.9195C37.0136 50.0498 36.6052 50.3839 35.8048 50.3839H35.4372C34.8736 50.3839 34.5796 50.6202 34.0323 50.7506C33.3871 50.9054 33.0195 51.0195 32.4314 51.3128C31.8842 51.5817 31.6555 51.9402 31.0592 52.0787C30.6508 52.1684 30.4221 52.2661 30.0546 52.478C29.9239 52.5513 29.785 52.6084 29.785 52.7632C29.785 53.0076 30.0872 53.0647 30.0872 53.3091C30.0872 53.4476 29.8504 53.4476 29.8504 53.5943C29.8504 53.9365 30.1199 54.0669 30.3813 54.2787C31.002 54.7758 31.5575 54.8084 32.3498 54.8084H32.652L34.89 55.2728H35.2902C36.0907 55.2728 36.5236 55.5417 37.324 55.5417H37.6916C39.8888 55.5417 40.9751 56.8373 43.1723 56.8373H43.5071C43.7767 56.8373 43.9155 56.9758 44.1769 57.0002C44.8875 57.0654 45.3041 56.9513 46.0147 57.0654C46.2271 57.098 46.2597 57.3099 46.4476 57.3995C46.7498 57.5461 46.9785 57.4402 47.3134 57.4973C47.8361 57.595 48.1302 57.7173 48.6529 57.8313C50.1395 58.1573 50.9808 58.3202 52.4919 58.5321C53.0473 58.6054 53.3822 58.5402 53.9294 58.6624C54.1254 58.7032 54.1173 58.9476 54.297 59.0291C54.4522 59.1024 54.5665 59.0862 54.7299 59.0943C55.3915 59.1513 55.7754 59.1024 56.4288 59.1921C57.4334 59.3306 57.9807 59.5913 59.0017 59.5913H59.4019C59.7041 59.5913 59.8675 59.7054 60.1697 59.7543C60.8395 59.8602 61.2234 59.8521 61.9013 59.8847C61.9503 60.2269 62.1872 60.5202 62.5384 60.5202H63.2408C63.8698 60.5202 64.2373 60.4958 64.8418 60.6506C65.1603 60.7321 65.34 60.8462 65.6749 60.8462H66.1405C66.9654 60.8462 67.431 60.9602 68.2478 61.115C68.6643 61.1965 68.9992 61.058 69.3178 61.3513C69.3178 61.6528 69.3504 61.8321 69.3504 62.1336C69.3504 62.5491 69.2524 62.7691 69.2524 63.1847V63.8202C68.9257 64.0728 68.7624 64.3825 68.354 64.3825C67.6515 64.3825 67.2513 64.3988 66.5488 64.3173C66.459 64.3091 66.41 64.2521 66.312 64.2521C63.5104 64.2276 61.934 64.2521 59.1324 64.3173C58.3238 64.3336 57.8745 64.4802 57.0577 64.4802C56.4451 64.4802 56.1021 64.4802 55.4895 64.4151C54.8932 64.3499 54.5502 64.4151 53.9539 64.3173C53.6435 64.2684 53.472 64.1543 53.1535 64.1543H52.6552C51.9528 64.1543 51.5852 63.8202 50.8828 63.8202H50.5479C49.9925 63.8202 49.6903 63.6573 49.143 63.5513C48.1138 63.3558 47.5339 63.2173 46.5374 62.8832C46.5864 62.6958 46.7335 62.6225 46.7335 62.435C46.7335 61.8728 45.9902 61.9136 45.4348 61.8158C44.8875 61.7262 44.5771 61.7017 44.0299 61.6202C43.8257 61.5876 43.7522 61.4247 43.548 61.4247C43.4173 61.4247 43.3519 61.4899 43.2131 61.4899C42.9354 61.4899 42.8619 61.1802 42.5923 61.1232C42.3636 61.0743 42.2248 61.1232 41.9879 61.1232C41.751 61.1232 41.6449 61.0254 41.4243 60.9928C40.5095 60.8462 39.9949 60.7647 39.0883 60.5936C36.7604 60.1454 35.4209 60.0313 33.1094 59.4936C32.1374 59.2654 31.5901 59.1921 30.6018 59.0291C30.1199 58.9476 29.8504 58.7928 29.3685 58.7928H28.9682C27.0488 58.7928 26.036 58.0269 24.1247 57.8965C23.5937 57.8558 23.2834 57.9047 22.7606 57.8639C21.5436 57.7661 20.8412 57.6684 19.6568 57.3995C18.9299 57.2284 18.5378 57.0084 17.7863 56.935C16.8062 56.8291 16.2753 56.658 15.3196 56.438C15.0501 56.3728 14.9357 56.2261 14.6825 56.1039C14.3967 55.9654 14.1516 56.0469 13.8821 55.8676C13.5309 55.6313 13.3757 55.2973 12.9509 55.2973C12.5752 55.2973 12.1505 55.1424 12.1505 54.7676C12.1505 54.3684 12.4527 54.1973 12.7549 53.9365C13.3348 53.4313 13.7922 53.2113 14.56 53.1054C15.7362 52.9424 16.3325 52.5269 17.5005 52.3069C18.8318 52.0461 19.5996 51.9565 20.9065 51.6061C21.8458 51.3535 22.3522 51.0032 23.3242 51.0032C23.4712 51.0032 23.5284 50.8972 23.6754 50.8728C24.3697 50.7424 24.7863 50.7669 25.4805 50.6039C25.7419 50.5469 25.8808 50.4409 26.1503 50.4409H26.4525C26.8772 50.4409 27.1059 50.3106 27.5225 50.278C28.4455 50.1965 28.9682 50.2209 29.8912 50.278C30.9857 50.335 31.6146 50.1558 32.7091 50.0824C33.1829 50.0824 33.4606 50.1476 33.9262 50.0824C34.2937 50.0335 34.8573 50.2047 34.8573 49.8298C34.8573 49.5284 34.8573 49.3247 34.694 49.0802C34.6368 48.9906 34.5306 49.0313 34.4244 48.9824C34.0487 48.795 33.8445 48.6565 33.4606 48.4854C32.8888 48.2246 32.554 47.9884 31.925 47.9884H31.6228C31.0347 47.9884 30.7243 47.8009 30.1526 47.6543C29.6625 47.5321 29.3521 47.5891 28.8866 47.418C28.5353 47.2958 28.372 47.1002 28.0208 46.9861C27.3101 46.7498 26.8527 46.7906 26.1503 46.5217V46.4239C26.2075 46.3832 26.232 46.3261 26.2973 46.3261" fill="#FFFFFF"></path><path d="M19.812 46.4647H20.7105C21.3231 46.4647 21.6661 46.6276 22.2787 46.6276C22.5319 46.6276 22.6463 46.7987 22.8995 46.7987C23.022 46.7987 23.0955 46.7335 23.218 46.7335C23.4957 46.7335 23.6182 46.9291 23.8878 46.9698C25.2192 47.1573 25.9461 47.3854 27.2611 47.6706C28.1759 47.8661 28.6742 48.0943 29.5645 48.4039C30.2343 48.6402 30.6917 48.575 31.3043 48.9336V49.0965C30.953 48.958 30.708 49.0558 30.3323 49.0965C28.764 49.2921 27.8737 49.3328 26.33 49.6261C25.6194 49.7647 25.211 49.8054 24.4922 49.9276C24.2962 49.9602 24.19 50.058 23.994 50.058H23.5937C23.3977 50.058 23.2997 50.1558 23.1118 50.1558C22.8341 50.1558 21.8703 50.4247 21.5599 50.4899C20.98 50.6202 20.6206 50.5306 20.0244 50.6202C19.518 50.7017 19.2321 50.7913 18.7175 50.8239C18.3908 50.8402 18.2029 50.9299 17.8844 50.9869C17.6067 51.0439 17.3943 50.9706 17.1493 51.1173C16.5857 51.4595 16.2263 51.6224 15.581 51.7528C15.434 51.7773 15.3605 51.8832 15.2135 51.8832C15.0909 51.8832 14.6335 51.9158 14.5437 51.981C14.266 52.2091 13.9638 52.0624 13.6452 52.2173C13.3838 52.3395 13.1796 52.315 12.9428 52.4862C12.8203 52.5676 12.8611 52.7306 12.7386 52.8202C12.6161 52.918 12.4854 52.8936 12.3383 52.9506C11.7421 53.2032 11.4317 53.4476 10.9008 53.8143C10.6558 53.9854 10.5332 54.1565 10.4352 54.4499C10.3862 54.5884 10.2392 54.6291 10.2392 54.7839C10.2392 54.9876 10.4107 55.061 10.5414 55.2158C11.0887 55.8921 11.6931 55.9573 12.4119 56.4462C13.2858 57.0573 13.9556 57.0817 14.9521 57.481C15.9894 57.8965 16.6592 57.8965 17.6883 58.3121C18.2193 58.5321 18.6195 58.3691 19.1586 58.581C19.5996 58.7521 19.7875 59.078 20.2612 59.078H20.7268C22.099 59.078 22.8423 59.3876 24.1982 59.5751C27.1713 59.9906 28.8212 60.3328 31.7453 61.0091C36.0498 62.0114 38.394 62.8099 42.5923 64.2032C38.9984 64.2195 36.9728 64.358 33.3789 64.2032C31.9332 64.138 31.1246 64.3825 29.6707 64.3988C28.2495 64.4151 27.449 64.301 26.0278 64.301H23.2915L17.9824 64.5047H13.3103C11.9136 64.5047 11.1295 64.5617 9.74095 64.6351C9.23454 64.6677 8.94866 64.7247 8.44225 64.7328C7.50294 64.7491 6.96385 64.7084 6.02454 64.7003C5.46912 64.6106 5.14241 64.6025 4.57065 64.6025C4.47264 64.6025 4.48897 64.4558 4.40729 64.4069C4.08058 64.2114 4.15409 63.8284 3.87638 63.5758C3.87638 61.6936 3.89271 60.6262 3.90905 58.7439C3.7947 58.1328 3.84371 57.7662 3.87638 57.1469C3.91722 56.4054 3.81104 55.9899 3.81104 55.2484C3.81104 55.1506 3.87638 55.1099 3.87638 55.0121C3.94172 53.7328 3.91722 52.9995 3.94172 51.7121C3.91722 51.598 3.86004 51.5491 3.81104 51.4432C3.90905 50.7587 4.01523 50.3676 4.07241 49.675C4.12958 49.0395 4.07241 48.6647 4.07241 48.0291C4.07241 47.7439 4.12142 47.5728 4.23577 47.3121C4.2521 47.3365 4.26027 47.3528 4.26844 47.3773C5.10157 47.2224 5.59981 47.2469 6.40843 46.978C6.44927 47.0513 6.50645 47.0921 6.50645 47.1736C6.50645 47.3528 6.44111 47.4424 6.44111 47.6217C6.44111 47.7439 6.55546 47.7928 6.61263 47.9069C6.68614 48.0454 6.68614 48.241 6.8495 48.241C7.4866 48.241 7.80515 47.9395 8.41774 47.8091C9.54492 47.5565 10.2229 47.5076 11.2847 47.0758C11.5869 46.9536 11.7993 47.0758 12.1178 47.0106C12.6324 46.8965 12.9264 46.7417 13.4574 46.7417C13.7106 46.7417 13.8412 46.6439 14.0944 46.6439C14.7806 46.6439 15.1726 46.538 15.8669 46.5461C17.0512 46.5543 17.721 46.6602 18.9054 46.6113C19.2729 46.6032 19.4689 46.4484 19.8365 46.4484" fill="#007F52"></path><path d="M26.8936 52.0624C27.0161 52.0624 27.1631 52.1113 27.1631 52.2254C27.1631 52.3232 27.0733 52.3965 26.9753 52.3965C26.9017 52.3965 26.8609 52.3639 26.7874 52.3639C26.7792 52.2987 26.7547 52.2661 26.7547 52.2009C26.7547 52.1276 26.8119 52.0706 26.8854 52.0706" fill="#26231E"></path><path d="M23.1037 53.9284C23.3569 53.9284 23.4712 54.0669 23.6836 54.1973C23.8388 54.2869 24.0511 54.3113 24.0511 54.4987C24.0511 54.7758 23.7734 54.8736 23.5202 54.9632C23.2262 55.0773 23.071 55.2321 22.7524 55.2321C22.3277 55.2321 22.1153 55.0365 21.7151 54.898C21.4701 54.8165 21.1434 54.8084 21.1434 54.5476C21.1434 54.2706 21.4782 54.238 21.7478 54.1647C22.2542 54.018 22.5646 53.9284 23.1037 53.9284Z" fill="#26231E"></path><path d="M16.9777 54.7269C17.2146 54.7269 17.3698 54.7513 17.5821 54.8572C17.5576 54.9306 17.5168 54.9632 17.5168 55.0365C17.5168 55.1098 17.5576 55.1506 17.5821 55.2239C17.525 55.2565 17.5168 55.3217 17.4515 55.3217C17.0839 55.3217 16.8389 55.1343 16.651 54.8246C16.7654 54.7595 16.8552 54.7269 16.9859 54.7269" fill="#26231E"></path><path d="M27.694 55.1261C27.8084 55.1261 27.9309 55.1913 27.9309 55.3135C27.9309 55.4358 27.8574 55.5335 27.743 55.5335C27.6042 55.5335 27.4572 55.4521 27.4572 55.3135C27.4572 55.1995 27.5715 55.1261 27.694 55.1261Z" fill="#26231E"></path><path d="M30.0464 56.8617C30.3486 56.8617 30.6263 57.0654 30.6263 57.3587C30.6263 57.5706 30.4058 57.6928 30.1934 57.6928C29.8422 57.6928 29.4583 57.5298 29.4583 57.1795C29.4583 56.9187 29.785 56.8617 30.0464 56.8617Z" fill="#26231E"></path><path d="M35.5761 57.0572C35.7476 57.0572 35.8946 57.0817 35.9763 57.2202C35.8211 57.3506 35.6986 57.4565 35.4944 57.4565C35.3065 57.4565 35.2249 57.3261 35.1105 57.1876C35.2575 57.0735 35.3882 57.0572 35.5761 57.0572Z" fill="#26231E"></path><path d="M38.443 57.7254H38.541C38.5492 57.7906 38.5655 57.8314 38.5737 57.8884L38.4104 57.921C38.4104 57.8803 38.3777 57.864 38.3777 57.8232C38.3777 57.7743 38.4267 57.758 38.443 57.7254Z" fill="#26231E"></path><path d="M35.5761 58.4262L35.7721 58.4588V58.5891C35.7721 58.5891 35.7149 58.6217 35.6741 58.6217C35.6169 58.6217 35.5924 58.581 35.5434 58.5565L35.5761 58.4262Z" fill="#26231E"></path><path d="M42.0696 58.4262C42.1594 58.4262 42.2166 58.5158 42.2166 58.6136C42.2166 58.6625 42.1921 58.6869 42.1839 58.7277H42.0532C42.0206 58.6625 41.9552 58.638 41.9552 58.5647C41.9552 58.4995 42.0042 58.4343 42.0696 58.4343" fill="#26231E"></path><path d="M40.2808 59.0536C40.3625 59.0536 40.3625 59.1595 40.4115 59.2166C40.4932 59.3143 40.6484 59.3062 40.6484 59.4366C40.6484 59.5262 40.5667 59.5832 40.485 59.5832C40.2236 59.5832 39.9133 59.4773 39.9133 59.2166C39.9133 59.0618 40.1256 59.0536 40.2808 59.0536Z" fill="#26231E"></path><path d="M46.3087 59.3225C46.6273 59.3225 46.7906 59.4773 47.0929 59.5913C47.199 59.6321 47.3624 59.6076 47.3624 59.7217C47.3624 60.1454 46.8723 60.3247 46.4476 60.3247C45.7942 60.3247 45.4429 60.0884 44.7977 60.0884H44.4955C44.3566 60.0884 44.1932 60.0395 44.1932 59.9091C44.1932 59.7217 44.4219 59.7217 44.5935 59.6565C45.2306 59.4202 45.6308 59.3225 46.3087 59.3225Z" fill="#26231E"></path><path d="M54.2561 59.6239C54.4277 59.6239 54.395 59.8684 54.542 59.958C54.7217 60.0721 54.9422 60.1128 54.9422 60.3247C54.9422 60.4713 54.7707 60.5284 54.6237 60.5284C54.1091 60.5284 53.8151 60.4958 53.3087 60.4958C53.227 60.398 53.2188 60.2921 53.1126 60.2269C52.8594 60.0884 52.4428 60.1699 52.4428 59.8765C52.4428 59.681 52.7124 59.6891 52.9084 59.6891H53.8804C53.9539 59.6891 53.9784 59.7543 54.0438 59.7543C54.1418 59.7543 54.1581 59.6239 54.2643 59.6239" fill="#26231E"></path><path d="M60.7986 60.9521C60.8885 60.9521 60.9293 61.0173 60.9783 61.0825C60.962 61.1232 60.9375 61.1476 60.913 61.1802H60.6761C60.6761 61.1802 60.6434 61.1232 60.6434 61.0825C60.6434 61.001 60.717 60.9521 60.7905 60.9521" fill="#26231E"></path><path d="M56.2246 61.555C56.584 61.555 56.78 61.6773 57.1394 61.7262C57.2864 61.7424 57.507 61.7099 57.507 61.8565C57.507 62.0032 57.3844 62.0765 57.2701 62.158C57.1394 62.2558 57.0904 62.4269 56.9189 62.4269C56.4043 62.4269 55.7672 62.3047 55.7672 61.7913C55.7672 61.5958 56.0204 61.555 56.2164 61.555" fill="#26231E"></path><path d="M64.7192 62.0195H64.8173C64.8254 62.1092 64.8336 62.1662 64.8173 62.2558H64.6866C64.6866 62.2558 64.6539 62.1988 64.6539 62.1581C64.6539 62.101 64.6947 62.0766 64.7192 62.0277" fill="#26231E"></path><path d="M52.1978 62.2232C52.4428 62.2232 52.7287 62.3129 52.7287 62.5573C52.7287 62.6388 52.6797 62.7203 52.598 62.7203C52.4102 62.7203 52.3122 62.7203 52.1325 62.6877C51.9364 62.6551 51.6996 62.6225 51.6996 62.4188C51.6996 62.3618 51.7241 62.3373 51.7322 62.2884C51.8303 62.2884 51.8874 62.2884 51.9854 62.2884C52.0753 62.2884 52.1161 62.2232 52.206 62.2232" fill="#26231E"></path><path d="M62.4486 63.5188C62.4976 63.5351 62.5302 63.5432 62.5792 63.5514C62.5792 63.6329 62.5792 63.6736 62.5792 63.7469H62.4077C62.4077 63.7062 62.375 63.6736 62.375 63.6329C62.375 63.584 62.4241 63.5595 62.4404 63.5188" fill="#26231E"></path><path d="M23.0547 54.2298C23.2589 54.2298 23.3814 54.3521 23.4876 54.5313C23.1853 54.8328 22.8423 54.7676 22.4176 54.7676C22.1317 54.7676 21.952 54.6699 21.7478 54.4661C22.2134 54.2543 22.5319 54.2298 23.0465 54.2298" fill="#FFFFFF"></path><path d="M45.9738 59.5588C46.3577 59.5588 46.6355 59.6484 46.8887 59.9254C46.856 59.9254 46.8396 59.958 46.807 59.958C46.3332 59.958 46.0637 59.8277 45.59 59.8277V59.7299C45.6961 59.6158 45.8105 59.5669 45.9738 59.5669" fill="#FFFFFF"></path><path d="M54.0029 59.8603C54.0764 59.9091 54.1091 59.9743 54.1336 60.064H53.7987C53.7089 60.0151 53.6354 59.9988 53.5292 59.9988C53.4393 59.9988 53.2025 59.9662 53.2923 59.9662H53.7579C53.8559 59.9662 53.9131 59.9173 53.9947 59.8684" fill="#FFFFFF"></path><path d="M56.3063 61.7914C56.5268 61.7914 56.6902 61.8321 56.8372 61.9951V62.0929C56.7882 62.0929 56.7555 62.1254 56.7065 62.1254C56.486 62.1254 56.3798 62.0032 56.1756 61.9217C56.2164 61.8566 56.2328 61.7914 56.3063 61.7914Z" fill="#FFFFFF"></path><path d="M42.0533 7.19861H42.2166C42.2166 8.08676 42.4862 8.55935 42.6495 9.43121C42.6903 9.65121 42.7557 9.78158 42.7802 10.0016C42.7965 10.1157 42.723 10.2297 42.8129 10.3031C43.0416 10.5068 43.3928 10.2623 43.5807 10.5068C43.7195 10.6779 43.646 10.8571 43.646 11.0853C43.646 11.5986 43.8339 11.8675 43.9482 12.3645C44.1361 13.1712 44.1116 13.6683 44.1116 14.4994C44.1116 15.5097 44.6098 16.0312 44.6098 17.0497C44.6098 17.2046 44.4465 17.2616 44.4465 17.4164C44.4465 17.5712 44.6833 17.5875 44.6833 17.7505C44.6833 17.9379 44.4873 17.9786 44.3484 18.1009C44.1524 18.2801 44.1116 18.5653 43.8502 18.5653C43.5888 18.5653 43.7277 18.166 43.6868 17.8972C43.6133 17.4653 43.3846 17.2371 43.3846 16.7971C43.3846 16.6179 43.2703 16.4305 43.0824 16.4305C42.9354 16.4305 42.9109 16.6342 42.7639 16.6342C42.5515 16.6342 42.6577 16.3083 42.6168 16.1046C42.4453 15.3631 42.3718 14.9312 42.282 14.1734C42.2329 13.7742 42.1513 13.5542 42.1839 13.1549L41.0813 7.97268C41.2855 7.54083 41.7102 7.54083 42.0533 7.20676" fill="#12110C"></path><path d="M50.6622 8.10304C50.8011 8.31489 50.8093 8.5023 50.9645 8.706C51.1768 8.97489 51.43 8.99933 51.6342 9.27637L50.9318 12.2586C50.8174 12.7801 50.7276 13.0816 50.6296 13.603C50.5969 13.766 50.6132 14.0023 50.4417 14.0023C50.2702 14.0023 50.2293 13.8312 50.1232 13.7008C50.0333 13.5868 49.821 13.603 49.821 13.4482C49.821 12.4705 50.0578 11.9408 50.1885 10.963C50.3437 9.83859 50.1803 9.1297 50.6541 8.09489" fill="#12110C"></path><path d="M59.696 9.03195C60.137 9.03195 60.3984 9.06454 60.815 9.20306C60.766 9.27639 60.717 9.31713 60.717 9.39861C60.717 9.48009 60.7823 9.52898 60.7823 9.61861C60.7823 9.77343 60.6598 9.83861 60.5781 9.96898C60.3821 10.3275 60.2432 10.5231 60.0799 10.8979C59.4999 12.2179 58.9282 12.8534 58.3074 14.1653C58.046 14.7357 57.7602 14.9883 57.507 15.5668C56.9597 16.7971 56.7473 17.5712 55.9061 18.6305C55.6692 18.4268 55.6202 18.2149 55.4405 17.9623C55.3425 17.8238 55.1709 17.7831 55.1709 17.612C55.1709 17.3431 55.3996 17.2534 55.5385 17.0334C55.6855 16.7808 55.759 16.6179 55.9061 16.3653C56.6003 15.2001 56.9761 14.5238 57.4743 13.269C57.8255 12.3808 58.2176 11.9571 58.577 11.069C58.7975 10.5149 59.1814 10.3112 59.3447 9.73269C59.4264 9.43935 59.3938 9.03195 59.696 9.03195Z" fill="#12110C"></path><path d="M34.5061 13.432C35.037 14.3201 35.3719 14.809 35.911 15.6971C36.303 16.3409 36.5154 16.7157 36.9483 17.3268C37.0708 17.506 37.1362 17.6364 37.2832 17.7912C37.3649 17.8809 37.5201 17.8972 37.5201 18.0275C37.5201 18.2394 37.3894 18.3453 37.3894 18.5572C37.3894 18.6305 37.4547 18.6549 37.4547 18.7201C37.4547 19.0868 37.471 19.3068 37.3567 19.649C37.1117 19.5023 37.1035 19.266 36.8911 19.0786C36.1642 18.4594 35.9518 17.8972 35.3229 17.1801C34.7756 16.5527 34.6123 16.0883 34.1222 15.412C33.9507 15.1757 33.722 15.0616 33.722 14.7601C33.722 14.369 34.0814 14.2712 34.2937 13.9453C34.4081 13.7579 34.3999 13.6031 34.5306 13.4157" fill="#12110C"></path><path d="M50.2293 16.8215H50.36V17.286C50.115 17.8889 50.0251 18.2719 50.0251 18.9156C49.7964 18.9645 49.6576 18.9238 49.4207 18.9156C49.4207 18.8667 49.388 18.8341 49.388 18.7852C49.388 18.7119 49.4534 18.6793 49.4534 18.5978C49.4534 18.4756 49.2492 18.4756 49.2492 18.3452C49.2492 17.9786 49.4207 17.7912 49.5514 17.4489C49.6413 17.2208 49.5759 16.8786 49.8209 16.8786C49.9026 16.8786 49.9353 16.9438 50.0251 16.9438C50.115 16.9438 50.164 16.8704 50.2293 16.8134" fill="#12110C"></path><path d="M28.8947 17.0579H29.0254C29.1234 17.4653 29.3766 17.6282 29.6298 17.9542C30.0872 18.5653 30.3241 18.9401 30.7652 19.5512C31.2471 20.2193 31.5248 20.6105 31.9985 21.2786C32.2517 21.629 32.7337 21.6942 32.7337 22.126C32.7337 22.2482 32.6193 22.2971 32.5703 22.4112C32.3988 22.7942 32.3008 23.0223 32.0721 23.3727C31.6882 23.226 31.5656 22.949 31.2716 22.6719C30.6917 22.1179 30.3405 21.8001 29.736 21.2705C29.3031 20.8956 29.0908 20.6512 28.7314 20.203C28.3965 19.7875 28.1269 19.5023 28.1269 18.9727C28.1269 18.8749 28.1923 18.8342 28.1923 18.7364C28.1923 18.1823 27.8819 17.8971 27.5225 17.4734C27.9881 17.1638 28.3883 17.2779 28.8947 17.0416" fill="#12110C"></path><path d="M67.1615 20.9201H67.4882C67.4065 21.0749 67.4882 21.2053 67.4882 21.3845C67.4882 21.4823 67.3902 21.5231 67.3166 21.5801C67.4392 21.7512 67.4147 21.8979 67.4147 22.1097C67.4147 22.2564 67.5453 22.3297 67.5453 22.4764C67.5453 22.7371 67.1696 22.6475 66.9082 22.7127C66.1323 22.9082 65.7157 23.0631 64.9398 23.2423C63.8779 23.4868 63.2817 23.7068 62.2689 24.106H62.1055C62.2689 23.9675 62.4077 23.8453 62.4077 23.6253C62.4077 23.3808 62.4077 23.0468 62.1545 23.0468C61.6726 23.0468 61.4357 23.3482 60.9538 23.3482C60.8068 23.3482 60.7741 23.2097 60.6353 23.1527C60.5291 23.1038 60.4393 23.1934 60.3331 23.1527C59.941 22.9979 59.9083 22.6394 59.6306 22.3216C59.99 21.9631 60.3984 22.1179 60.8967 22.0201C61.8523 21.8245 62.4077 21.8001 63.3634 21.6208C64.4415 21.4171 65.095 21.4579 66.1323 21.1238C66.508 21.0016 66.7694 21.0668 67.1369 20.9201" fill="#12110C"></path><path d="M43.891 23.6497C45.6553 23.6497 46.6273 24.049 48.3344 24.5134C49.968 24.9616 50.9481 25.1571 52.4429 25.9475H52.5735C52.598 25.809 52.647 25.646 52.7941 25.646C53.0554 25.646 53.1535 25.8497 53.374 25.9801C53.7742 26.2082 54.0438 26.2571 54.4767 26.4119C54.7707 26.5179 54.8932 26.689 55.1791 26.8112C55.514 26.9579 55.8815 27.0882 55.8815 27.463C55.8815 27.5853 55.8407 27.7482 55.7182 27.7482C55.6692 27.7482 55.661 27.6993 55.6202 27.683H55.4241C55.4241 27.7319 55.3915 27.7645 55.3915 27.8134C55.3915 28.0497 55.6447 28.0986 55.7917 28.2779C56.1348 28.6853 56.3471 28.9134 56.6575 29.3453C57.0904 29.9482 57.3028 30.323 57.7928 30.8771C58.4463 31.6105 58.9037 32.0586 59.1242 33.0119C59.2059 33.3623 59.3938 33.5416 59.3938 33.9082V34.2423C59.3938 34.4297 59.2876 34.5356 59.1569 34.6742H58.4544C58.3973 34.6253 58.3564 34.5845 58.2911 34.5764C57.8582 34.5194 57.6131 34.6416 57.1721 34.6416C57.0659 34.6416 57.0087 34.5764 56.9025 34.5764C56.829 34.5764 56.7964 34.6416 56.7228 34.6416C56.5513 34.6416 56.4533 34.5601 56.2899 34.5438C54.5257 34.3401 53.5047 34.4705 51.7486 34.2423C51.1115 34.1608 50.7521 34.0794 50.115 34.0794C50.0251 34.0794 49.9843 34.1445 49.8945 34.1445C49.6576 34.1445 49.5432 34.0142 49.3064 34.0142C49.2002 34.0142 49.143 34.0794 49.0368 34.0794C48.5631 34.0794 48.3099 33.8431 47.8361 33.8431C47.7545 33.8431 47.7218 33.9082 47.6319 33.9082C47.2562 33.9082 47.0765 33.6719 46.7008 33.6719C46.08 33.6719 45.7533 33.3705 45.1326 33.3705C45.0182 33.3705 45.0019 33.2482 44.8957 33.2075C44.5281 33.0364 44.2831 32.9875 43.891 32.8734C42.478 32.4823 41.702 32.1971 40.2808 31.806C39.6601 31.6349 39.3007 31.5453 38.6799 31.3742C38.4349 31.309 38.2307 31.4393 38.0101 31.309C37.5854 31.0564 37.2587 31.1053 36.7768 31.0075C36.2622 30.9097 35.9681 30.7712 35.4372 30.7712H35.0697C34.5796 30.7712 34.2692 30.5919 33.9343 30.2416C33.8363 30.1356 33.6321 30.1519 33.6321 30.0053C33.6321 29.8097 33.7465 29.7119 33.8282 29.5408C34.163 28.9134 34.5388 28.6853 35.0615 28.2045C35.6986 27.626 35.9681 27.186 36.6298 26.6401C36.7278 26.5586 36.8585 26.6156 36.9646 26.5423C37.2995 26.3141 37.4792 26.1593 37.7651 25.8741C38.5737 25.0675 39.3987 25.1327 40.4687 24.7416C41.1384 24.4971 41.5223 24.3912 42.1676 24.106C42.5515 23.943 42.7884 23.7312 43.2049 23.8045C43.2049 23.7719 43.1968 23.7556 43.1723 23.7393C43.4418 23.6986 43.597 23.6416 43.8747 23.6416" fill="#FCC128"></path><path d="M67.9456 27.8787C68.0273 27.8787 68.0844 27.9031 68.1661 27.9112C68.1824 28.3024 68.1743 28.5224 68.2314 28.9135C68.2396 28.9949 68.2886 29.0357 68.2968 29.109C68.3295 29.2557 68.2805 29.3535 68.2968 29.5083C67.9782 29.8505 67.6189 29.8179 67.1615 29.9401C66.5652 30.0949 66.2711 30.315 65.6912 30.5024C65.2257 30.6572 64.9153 30.6409 64.4905 30.869L64.319 30.8364C64.3599 30.7631 64.417 30.7224 64.417 30.6409C64.417 30.3475 64.1475 30.2335 64.1475 29.9401C64.1475 29.7201 64.3599 29.655 64.5477 29.5409C65.0786 29.2231 65.4217 29.1335 65.9853 28.8727C66.4753 28.6446 66.7612 28.5061 67.2186 28.2372C67.4882 28.0824 67.627 27.8705 67.9374 27.8705" fill="#12110C"></path><path d="M27.6287 23.4135C28.519 23.6498 28.9356 24.0409 29.8014 24.3831C30.1362 24.5135 30.3078 24.6846 30.6672 24.6846C30.5773 24.9127 30.5691 25.0676 30.5691 25.3201C30.5446 25.3364 30.5283 25.3446 30.5038 25.3527L28.9519 24.8557C28.7232 24.9046 28.6415 25.0757 28.5027 25.255C28.4455 25.3283 28.3311 25.3527 28.3311 25.4505C28.3311 25.589 28.5027 25.5972 28.6334 25.6542C28.9274 25.7764 29.0826 25.8987 29.3685 26.0535C29.4665 26.1105 29.6053 26.1187 29.6053 26.2409C29.6053 26.5587 29.4501 26.7624 29.2051 26.9579C29.1316 27.015 29.1153 27.1209 29.0172 27.1209C28.7069 27.1209 28.5435 26.9498 28.2658 26.8194C28.0371 26.7135 27.8737 26.7868 27.6287 26.7216C27.2366 26.6076 27.0488 26.4527 26.6567 26.355C26.1503 26.2327 25.8481 26.1839 25.358 26.0209C25.015 25.9068 24.5576 25.915 24.5576 25.5564C24.5576 25.2957 24.6229 25.149 24.6229 24.8883C24.6229 24.652 24.5576 24.5216 24.5576 24.2853C24.5576 24.2283 24.5739 24.2038 24.5902 24.155C25.0721 24.3424 25.3662 24.3913 25.8563 24.5542C26.3545 24.7172 26.6322 24.9209 27.1631 24.9209C27.5388 24.9209 27.5307 24.3994 27.5307 24.0246C27.5307 23.7883 27.5552 23.6498 27.6287 23.4216" fill="#12110C"></path><path d="M11.1867 59.9906C11.1867 61.7099 10.0023 62.8913 8.49941 62.8913C6.82499 62.8913 5.78766 61.5876 5.78766 59.9906C5.78766 58.2795 6.97201 57.0898 8.49941 57.0898C10.0268 57.0898 11.1867 58.2795 11.1867 59.9906ZM11.9381 59.9906C11.9381 57.8802 10.3372 56.4787 8.49125 56.4787C6.64529 56.4787 5.02805 57.8802 5.02805 59.9906C5.02805 61.9869 6.4656 63.5024 8.49125 63.5024C10.3372 63.5024 11.9381 62.101 11.9381 59.9906ZM7.79697 59.795V58.6624H8.56476C8.94865 58.6624 9.41422 58.7195 9.41422 59.1921C9.41422 59.7543 8.98949 59.8032 8.50758 59.8032H7.7888L7.79697 59.795ZM7.79697 60.341H8.4014L9.40605 62.0032H10.133L9.04666 60.2921C9.62659 60.2269 10.0595 59.9335 10.0595 59.2328C10.0595 58.4424 9.57758 58.1165 8.63827 58.1165H7.15987V62.0032H7.79697V60.341Z" fill="#23211C"></path><path d="M176.587 58.638C176.587 58.638 176.603 58.6869 176.603 58.6951C176.644 58.6625 176.636 58.6462 176.587 58.638Z" fill="black"></path><path d="M123.487 32.0586C123.487 31.0564 123.055 30.5512 122.834 29.5734C122.336 27.4223 122.213 26.1756 121.846 24.0001C121.731 23.283 121.298 22.9245 121.298 22.1993V21.7104C121.298 20.3578 120.841 19.6408 120.531 18.3208C120.13 16.5852 120.171 15.5504 119.877 13.7823C119.698 12.7149 119.33 12.1608 119.33 11.0771C119.33 10.8163 119.436 10.6778 119.436 10.4252C119.436 10.3682 119.387 10.3356 119.379 10.2867C118.603 10.4904 118.154 10.6126 117.353 10.6126C117.084 10.6126 116.937 10.5067 116.667 10.5067C116.447 10.5067 116.341 10.6126 116.12 10.6126C115.948 10.6126 115.85 10.5067 115.679 10.5067C115.491 10.5067 115.401 10.5475 115.213 10.5637C115.213 12.0793 115.083 12.9349 114.936 14.4423C114.813 15.6971 114.552 16.406 114.552 17.6689V18.4349C114.552 19.9993 113.98 20.8141 113.792 22.3704C113.686 23.1934 113.792 23.666 113.792 24.4971C113.702 24.4971 113.678 24.5867 113.735 24.603C113.71 24.6682 113.629 24.6682 113.629 24.7416C113.629 24.8149 113.735 24.8312 113.735 24.9045C113.735 25.4993 113.457 25.809 113.457 26.4038V27.0638C113.457 29.003 112.681 29.9971 112.363 31.9282C113.294 31.7408 113.849 32.1482 114.797 32.1482C115.189 32.1482 115.107 31.6023 115.156 31.2193C115.221 30.6897 115.434 30.3964 115.434 29.8505C115.434 29.2719 115.728 28.9868 115.875 28.4327C115.932 28.229 115.834 28.0334 115.989 27.8867C116.259 27.6097 116.594 27.7564 116.978 27.6667C117.917 27.4386 118.448 27.2267 119.412 27.2267C119.689 27.2267 119.6 27.6179 119.657 27.8786C119.796 28.4979 119.91 28.8482 120.098 29.4593C120.367 30.3475 120.482 30.8771 120.482 31.806V32.9549C120.588 32.9794 120.645 33.0119 120.759 33.0119C121.339 33.0119 121.568 32.5475 122.132 32.409C122.654 32.2786 123.504 32.5964 123.504 32.0505L123.487 32.0586ZM117.843 24.4401C117.402 24.4401 117.133 24.4645 116.749 24.6601C116.724 24.603 116.692 24.5704 116.643 24.5541C116.708 23.2586 116.7 22.509 116.806 21.2215C116.847 20.6675 116.986 20.3497 117.027 19.8038C117.174 17.9541 117.198 16.903 117.304 15.0534C117.451 15.0371 117.541 15.0371 117.688 15.0534C117.688 15.6645 117.745 16.023 117.745 16.6423C117.745 18.0112 117.884 18.7934 118.129 20.1378C118.407 21.6778 118.636 22.5416 118.954 24.0734C118.799 24.489 118.309 24.4564 117.86 24.4564L117.843 24.4401Z" fill="black"></path><path d="M159.916 27.5771C159.916 28.7668 160.406 29.3942 160.406 30.5838C160.406 31.0401 160.243 31.3008 160.243 31.7571C160.243 31.8712 160.276 31.9445 160.3 32.0586H160.627C160.856 31.8956 161.076 32.0342 161.338 31.9527C161.86 31.7816 162.105 31.4638 162.653 31.4638C162.93 31.4638 163.086 31.5697 163.363 31.5697C163.518 31.5697 163.69 31.4801 163.69 31.3253C163.69 30.4616 163.306 30.0134 163.143 29.166C162.971 28.3023 163.086 27.7564 162.816 26.9253C162.628 26.3386 162.269 26.0453 162.269 25.426C162.269 25.0838 162.873 25.1408 162.873 24.7986C162.873 24.5216 162.71 24.3667 162.71 24.0897C162.71 23.6986 162.873 23.4949 162.873 23.1038C162.873 22.6801 162.914 22.4356 162.873 22.0119C162.359 22.0119 162.048 21.8815 161.558 22.0119C160.995 18.2638 160.635 16.1534 160.104 12.4052C160.031 11.8349 159.876 11.4519 160.104 10.9304C158.781 11.0608 158.021 11.0689 156.739 11.3704L156.086 15.1919V15.8438C156.086 16.4956 155.881 16.846 155.759 17.4815C155.522 18.6875 155.498 19.3964 155.269 20.5941C155.171 21.1482 154.942 21.4497 154.942 22.0119V22.6149C154.942 22.9653 154.575 23.2097 154.232 23.1608C154.101 24.4401 153.627 25.1082 153.627 26.3875C153.627 26.6156 154.117 26.5097 154.117 26.7379C154.117 27.8623 153.758 28.4816 153.407 29.549C153.211 30.1438 153.423 30.6164 153.08 31.1297V31.6186H153.358C153.464 31.5616 153.521 31.5127 153.635 31.5127C153.97 31.4801 154.174 31.4801 154.509 31.5127C154.95 31.5616 155.203 31.6756 155.661 31.6756C155.808 31.6756 155.988 31.6105 155.988 31.4556C155.988 31.2275 155.824 31.1134 155.824 30.8853C155.824 30.1356 156.102 29.7282 156.265 29.003C156.461 28.1312 156.2 27.5445 156.535 26.7053C156.698 26.2979 157.196 26.4771 157.629 26.3793C158.242 26.2327 158.561 25.9393 159.189 25.9393C159.892 25.9393 159.925 26.8764 159.925 27.5771H159.916ZM157.776 22.6638H157.392V22.1178C157.67 21.1238 157.834 20.529 157.834 19.4941V18.8912C157.834 17.6689 158.234 17.0171 158.544 15.8275C158.43 18.3371 158.65 19.7386 158.65 22.2482C158.65 22.623 158.103 22.4845 157.776 22.6556V22.6638Z" fill="black"></path><path d="M135.445 12.7312C135.568 13.0978 135.404 13.3912 135.609 13.7171C135.821 14.0512 136.327 14.0267 136.376 14.426C136.556 15.803 136.532 16.5934 136.703 17.9786C136.785 18.6304 136.744 19.0134 136.703 19.6734C136.646 20.5778 136.981 21.083 136.981 21.9956C136.981 22.1341 136.875 22.2075 136.875 22.346C136.875 23.006 137.005 23.3808 136.981 24.0408C136.965 24.7008 136.817 25.0756 136.817 25.7356C136.817 25.8008 136.924 25.7845 136.924 25.8416C136.924 26.2001 136.899 26.4119 136.866 26.7705C136.744 27.9764 136.515 28.6771 136.646 29.883C136.679 30.2416 136.679 30.7549 136.319 30.7549C136.254 30.7549 136.221 30.6979 136.156 30.6979C136.009 31.2438 136.05 31.5779 136.05 32.1482C136.05 32.4253 136.425 32.4497 136.703 32.4497C137.267 32.4497 137.569 32.2868 138.124 32.2868C138.721 32.2868 139.064 32.3194 139.66 32.2868C141.383 32.189 142.796 32.1971 143.826 30.8119C144.356 30.103 144.144 29.443 144.267 28.5712C144.454 27.1045 144.544 26.2571 144.544 24.7741C144.544 24.6764 144.438 24.5867 144.438 24.5867V24.4238C144.454 24.3749 144.544 24.3993 144.544 24.3423C144.544 23.8616 144.438 23.5927 144.438 23.1119C144.438 22.8593 144.561 22.6719 144.438 22.4601C143.997 21.7349 142.682 22.0201 142.682 21.1727C142.682 20.8223 142.886 20.643 143.009 20.3253C143.335 19.5023 143.499 18.9808 143.499 18.0845V17.4815C143.499 17.0497 143.662 16.8215 143.662 16.3897C143.662 14.6134 143.401 13.5297 142.568 11.9652C142.2 11.2808 142.167 10.5475 141.416 10.3275C140.926 10.1808 140.607 10.2867 140.101 10.2215C138.557 10.2867 137.691 10.2867 136.156 10.3845C135.568 10.4171 135.11 10.3682 134.677 10.7675C135.347 11.2482 135.184 11.9489 135.445 12.7312ZM141.743 24.6112C141.743 24.6682 141.677 24.6764 141.628 24.6927C141.694 24.9779 141.743 25.1571 141.743 25.4586C141.743 26.3386 141.596 26.8438 141.416 27.6993C141.277 28.3267 141.563 28.8564 141.138 29.3371C140.722 29.8179 140.166 29.6468 139.603 29.9401C139.415 29.7119 139.325 29.5245 139.325 29.2312C139.325 29.0275 139.431 28.9216 139.431 28.7097C139.431 27.9682 139.211 27.5608 139.211 26.8275C139.211 26.1675 139.211 25.7845 139.317 25.1327C139.456 24.269 140.191 23.7149 141.073 23.7149C141.514 23.7149 141.726 24.1793 141.726 24.6193L141.743 24.6112ZM139.717 13.326C140.158 13.326 140.371 13.8067 140.371 14.2549C140.371 14.4749 140.575 14.5401 140.64 14.7438C140.918 15.5015 141.187 15.9334 141.187 16.7401C141.187 17.4327 141.13 17.8238 141.13 18.5164C141.13 18.826 140.975 18.989 140.91 19.2823C140.828 19.6815 140.934 20.0075 140.689 20.3171C140.322 20.7815 139.823 20.7082 139.317 21.026V19.8527C139.317 19.0052 139.137 18.5327 139.039 17.6934C138.933 16.7645 138.982 16.2186 138.876 15.2897C138.81 14.7193 138.655 14.3934 138.655 13.8149C138.655 13.3667 139.243 13.326 139.693 13.326H139.717Z" fill="black"></path><path d="M105.453 10.0341C105.453 10.0341 105.444 10.083 105.444 10.1319C105.485 10.0993 105.494 10.0667 105.453 10.0341Z" fill="black"></path><path d="M111.129 27.569C110.647 27.569 110.002 27.4223 109.545 27.569C109.055 27.7319 109.136 29.2149 108.622 29.2801C108.279 29.3208 106.866 29.6712 106.514 29.6712C106.278 29.6712 106.139 29.4593 106.106 29.2312C105.935 28.2453 106.049 27.6505 106.049 26.6401C106.049 25.4993 106.384 24.8312 106.155 23.7149C105.975 22.8186 106.098 19.9423 106.098 19.9423C106.033 17.7504 105.877 16.5038 105.935 14.3119C105.935 14.1734 105.428 10.743 105.428 10.1237C105.208 10.303 103.754 10.4171 102.136 10.4171C102.136 11.4682 102.921 12.6008 102.921 13.6519V15.0697C102.921 15.2082 102.978 15.2734 103.027 15.3956V18.0193C103.027 18.7527 103.092 19.1764 103.19 19.9015C103.247 23.5356 103.321 25.3038 103.19 28.8645C103.174 29.3616 102.398 29.549 102.398 30.0542C102.398 30.6816 102.504 31.4068 102.529 32.0342L103.517 32.1238C103.648 32.0668 103.729 32.0179 103.876 32.0179C104.04 32.0179 104.121 32.1238 104.285 32.1238C106.384 32.1971 109.283 31.7408 111.383 31.7408V31.2438C111.383 30.2497 111.252 30.0053 111.252 29.0112C111.252 28.9053 111.227 27.5608 111.121 27.5608L111.129 27.569Z" fill="black"></path><path d="M173.246 29.5734C173.312 29.2393 173.573 29.0927 173.573 28.7505C173.573 27.2105 174.374 26.4771 174.725 24.9779C174.954 23.9838 174.954 23.3808 175.272 22.4112C175.419 21.9549 175.297 21.5882 175.599 21.2053C175.999 21.4415 176.081 21.8327 176.089 22.2971C176.146 25.2793 176.073 26.966 176.032 29.9482C176.032 30.6979 175.868 31.1053 175.868 31.8631H176.146C177.29 31.2601 178.033 31.0727 179.266 30.6653C179.144 30.0868 178.988 29.7527 178.988 29.166C178.988 28.8727 179.095 28.726 179.095 28.4327C179.095 27.8053 178.899 27.4712 178.825 26.8519C178.637 25.3282 178.825 24.4401 178.662 22.9164C178.621 22.4927 178.498 22.2564 178.498 21.8245C178.498 21.3927 178.547 21.1482 178.498 20.7327C178.384 19.7956 178.327 19.266 178.278 18.3289C178.115 15.2245 178.016 13.4645 178.008 10.3519C178.008 10.2134 178.074 10.1482 178.115 10.026C177.102 10.3112 176.489 10.5067 175.435 10.4089C175.329 10.9712 175.027 11.2237 174.888 11.7778C174.365 13.7415 174.235 14.8823 173.794 16.8623C173.565 17.8971 173.255 18.443 173.083 19.486C172.92 20.4719 172.372 20.9445 172.372 21.9467V22.7127H172.258L171.106 17.8482V17.1964C171.106 16.6993 170.763 16.4793 170.665 15.9904C170.51 15.1919 170.502 14.7193 170.388 13.9126C170.322 13.4482 170.004 13.2363 170.004 12.7638C170.004 12.1119 169.726 11.7697 169.726 11.126V10.58C169.726 10.4334 169.62 10.3682 169.62 10.2215C169.62 10.026 169.783 9.94449 169.783 9.75708C169.783 9.69189 169.742 9.65115 169.726 9.59412C168.754 9.71634 168.223 9.97708 167.259 10.1971C166.924 10.2704 166.688 10.1808 166.385 10.36C166.549 10.6697 166.663 10.8815 166.663 11.2319C166.663 12.6415 166.639 13.4401 166.557 14.8415C166.459 16.3489 166.23 17.2045 166.23 18.7201C166.23 18.8749 166.345 18.9482 166.345 19.103C166.345 19.9097 166.067 20.3497 166.067 21.1482C166.067 21.2949 166.181 21.3601 166.181 21.5067V22.6556C166.181 23.3319 165.903 23.6986 165.903 24.3749C165.903 24.8556 165.952 25.1327 165.903 25.6053C165.822 26.3875 165.626 26.8356 165.626 27.626V28.449C165.626 28.8482 165.462 29.0601 165.462 29.4593C165.462 30.2008 165.462 30.6164 165.356 31.3416C165.324 31.586 165.185 31.7164 165.079 31.9445L167.978 31.8386C168.207 31.1379 168.305 30.6979 168.305 29.9564C168.305 29.3697 168.272 29.0438 168.305 28.4571C168.419 26.469 168.55 25.3527 168.795 23.3727C168.917 22.3786 168.558 21.6616 169.073 20.806C169.26 21.2215 169.399 21.4904 169.399 21.9549C169.399 22.0771 169.293 22.1341 169.293 22.2564C169.293 22.3216 169.399 22.3216 169.399 22.3949C169.399 23.8697 170.167 24.6356 170.167 26.1104V26.9334C170.167 27.846 170.371 28.3593 170.657 29.2312C170.886 29.9238 170.976 30.3475 171.204 31.0319C171.27 31.2193 171.221 31.5208 171.425 31.5208C171.703 31.5208 171.833 31.3579 172.111 31.3579C172.446 31.3579 172.756 31.4475 172.961 31.1949C173.361 30.7142 173.116 30.2253 173.23 29.6142L173.246 29.5734Z" fill="black"></path><path d="M133.787 20.7571C133.73 19.5349 133.256 18.8749 133.256 17.6445V11.7452C133.256 11.3704 133.371 11.1586 133.526 10.8163L133.42 10.7104C133.117 10.743 132.93 10.6534 132.627 10.6534C132.064 10.6534 131.762 10.8734 131.206 10.8734C130.79 10.8734 130.553 10.7104 130.136 10.7104C130.087 10.7104 130.071 10.7675 130.022 10.7675C130.152 11.02 130.242 11.1912 130.242 11.4763V12.9512C130.242 13.9371 130.471 14.483 130.512 15.4608C130.577 17.123 130.463 18.0601 130.512 19.7223C130.512 20.1134 130.675 20.3171 130.675 20.7082C130.675 20.9445 130.569 21.0667 130.569 21.3112C130.569 21.686 130.634 21.906 130.732 22.2645C130.716 24.3423 130.749 25.5156 130.675 27.5934C130.659 28.0905 130.569 28.3838 130.398 28.8482C130.299 29.1171 130.25 29.4512 129.956 29.4512H129.466C127.457 29.4512 127.424 26.7542 127.335 24.7497C127.188 21.7838 127.196 20.0971 127.114 17.1312C127.114 16.4549 127.277 16.0882 127.277 15.4119C127.277 14.8986 127.212 14.6052 127.277 14.1001C127.375 13.2934 127.106 12.8208 127.277 12.0223C127.359 11.6393 127.604 11.46 127.604 11.0689C127.604 11.0119 127.555 10.9793 127.547 10.9304C127.122 10.9304 126.869 10.9304 126.452 10.8734C125.685 10.7756 125.211 10.7837 124.484 10.5475C124.459 10.9956 124.394 11.24 124.427 11.6963C124.427 11.8104 124.484 11.8675 124.533 11.9652V12.5112C124.533 12.6578 124.468 12.7393 124.427 12.8615C124.533 17.5386 124.541 20.1867 124.704 24.8556C124.721 25.4097 124.941 25.7275 124.982 26.2734C125.08 27.6342 124.958 28.4082 125.088 29.769C125.121 30.1682 125.578 30.209 125.799 30.5349C126.199 31.1053 126.322 31.6105 126.951 31.9038C127.596 32.1971 128.053 32.0912 128.756 32.1808C129.017 32.2134 129.172 32.2379 129.442 32.2379C130.259 32.2379 130.675 31.9201 131.443 31.6349C132.145 31.3823 132.766 31.4231 133.199 30.8119C133.608 30.2334 133.542 29.7282 133.804 29.0601C133.804 25.8253 133.934 23.9838 133.787 20.7571Z" fill="black"></path><path d="M88.6594 20.529C88.7738 19.429 88.7248 18.7852 88.6022 17.6852C88.4552 16.3082 88.3245 15.5178 88.3245 14.1326C88.3245 13.8963 88.4307 13.7741 88.4307 13.5297C88.4307 13.1875 88.3409 12.9919 88.3735 12.6578C88.4389 11.9978 88.6186 11.623 88.7002 10.963H88.2102C87.7609 11.1097 87.4832 11.24 87.0013 11.24H85.0329C85.1064 11.843 85.2697 12.1771 85.3596 12.7719C85.4821 13.546 85.2044 14.0186 85.3024 14.7926C85.6781 17.506 85.6291 19.0541 85.6291 21.7838V25.8823C85.6291 26.3386 85.7925 26.5993 85.7925 27.0556C85.7925 27.4305 85.8905 27.6667 85.7353 28.009C85.5638 28.4001 85.1554 28.449 84.7225 28.449C84.2569 28.449 83.9955 28.3267 83.5463 28.229C83.2277 28.1638 82.95 28.2045 82.7213 27.9519C82.3701 27.569 82.4926 27.1534 82.3946 26.6401C82.2394 25.8008 82.1006 25.3119 82.0679 24.4564C82.0271 23.3075 82.0434 22.6475 82.1251 21.5067C82.1251 21.3601 82.2313 21.2786 82.2313 21.1238C82.3129 19.9178 82.2313 19.2252 82.2884 18.0112C82.3211 17.3023 82.558 16.9193 82.558 16.2104C82.558 15.7867 82.5171 15.5341 82.558 15.1186C82.7132 13.7008 82.6315 12.8371 83.1624 11.5171C82.0271 11.3297 81.3573 11.68 80.2056 11.68C79.8871 11.68 79.7074 11.6556 79.3806 11.623C79.2336 12.1771 79.3806 12.5275 79.3235 13.0978C79.2745 13.6519 79.1601 13.9615 79.1601 14.5156C79.1601 14.9882 79.2091 15.2571 79.1601 15.7215C79.0458 16.7564 79.0049 17.3593 78.9396 18.4023C78.8252 20.3171 78.8416 21.4008 78.7762 23.3156C79.0131 25.1164 79.2418 26.1267 79.6502 27.903C79.8135 28.6282 79.7645 29.0927 80.0913 29.7608C80.3935 30.3801 80.9162 30.4779 81.4063 30.9668C81.9944 31.5534 82.3538 32.1645 83.1869 32.1645C84.02 32.1645 84.4448 31.9119 85.2452 31.7245C85.8823 31.5779 86.3234 31.6593 86.887 31.3416C87.2382 31.146 87.2627 30.8119 87.5404 30.5186C88.251 29.7771 88.447 29.0845 88.5777 28.0579C88.7084 27.0475 88.7411 26.4608 88.7411 25.4342L88.5777 22.3216C88.7574 21.6453 88.5532 21.2134 88.6349 20.5208L88.6594 20.529Z" fill="black"></path><path d="M174.749 37.9253C174.578 37.9253 174.496 38.0394 174.325 38.0394C174.178 38.0394 174.096 37.9823 173.957 37.9253L172.944 38.0149C172.92 38.6423 173.393 38.9112 173.393 39.5386C173.393 40.0438 173.565 40.3209 173.622 40.826C174.063 44.4357 173.687 46.5053 173.622 50.1394C173.524 50.8727 173.451 51.2883 173.451 52.0216V54.6453C173.393 54.7675 173.336 54.8327 173.336 54.9712V56.389C173.336 57.4401 172.944 58.0105 172.944 59.0616C174.61 59.0616 176.293 58.6216 176.579 58.6379C176.489 58.2468 176.424 55.8757 176.424 55.7372C176.367 53.5453 176.53 52.2987 176.595 50.1068H177.78C177.951 50.1068 178.033 50.2127 178.204 50.2127C178.433 50.2127 178.564 50.1068 178.792 50.1068C179.209 50.1068 179.389 49.8216 179.805 49.8216C179.969 49.8216 180.083 49.6749 180.083 49.5201C180.083 49.3327 179.969 49.2186 179.969 49.0312C179.969 48.5749 180.026 48.3142 180.026 47.8579C180.026 47.4016 180.197 47.1653 180.197 46.709C179.234 46.5298 178.931 46.6927 177.959 46.5786C177.453 46.5135 176.465 47.2386 176.652 46.3423C176.881 45.226 176.538 44.5579 176.538 43.4172C176.538 42.4068 176.416 41.812 176.595 40.826C176.628 40.5979 176.775 40.386 177.02 40.386C177.379 40.386 177.6 40.4023 177.951 40.4431C178.474 40.5083 178.792 40.5001 179.299 40.6631C179.773 40.8097 179.977 41.152 180.475 41.152C180.589 41.152 180.647 41.046 180.647 40.932C180.647 39.9379 180.81 38.8705 180.81 37.8846V37.3875C178.662 37.3875 176.897 37.8601 174.749 37.9334V37.9253Z" fill="black"></path><path d="M157.017 48.8275C156.984 48.5668 157.188 48.4283 157.188 48.1757C157.188 48.0209 157.107 47.9475 157.074 47.7927C157.335 44.9897 157.54 43.3846 157.752 40.5816C157.776 40.1497 157.981 39.9297 157.981 39.4897C157.981 39.286 157.866 39.172 157.866 38.9683C157.866 38.3408 157.891 37.966 158.038 37.3549H157.817C157.564 37.5994 157.27 37.5179 156.919 37.5749C156.241 37.6808 155.898 37.8927 155.236 38.0149C154.811 38.0883 154.509 37.8927 154.109 38.072C154.166 38.3001 154.248 38.4386 154.281 38.6749C154.313 38.952 154.338 39.1231 154.338 39.4164C154.338 39.9542 154.109 40.2394 154.109 40.7853C154.109 41.4697 154.281 41.8527 154.281 42.529C154.281 42.8386 154.232 43.0179 154.223 43.3194C154.199 44.4927 154.223 45.552 154.297 46.5542C154.231 46.5786 154.174 46.6031 154.093 46.6031C153.897 46.6031 152.002 46.6764 150.744 46.7905C150.515 44.729 150.295 42.6675 150.393 40.0357C150.417 39.2779 150.474 38.8297 150.564 38.072C150.621 37.5994 150.425 37.3468 150.417 37.2897C149.6 37.5505 149.682 37.2571 148.824 37.2571H146.97L146.913 37.3631L147.248 40.1497L148.204 47.0512H148.171C147.787 47.0512 147.591 47.2142 147.215 47.2142C146.766 47.2142 146.202 47.3201 146.202 47.7601C146.202 49.0068 145.745 49.6586 145.475 50.8727C146.521 50.5387 147.24 50.3757 148.155 50.2616C147.95 52.3475 147.779 53.855 147.599 56.2098C147.575 56.6416 147.379 56.8698 147.379 57.3016C147.379 57.5053 147.493 57.6194 147.493 57.8231C147.493 58.4505 147.468 58.8253 147.321 59.4364H147.55C147.803 59.192 148.097 59.2735 148.449 59.2164C149.127 59.1105 149.47 58.8987 150.131 58.7764C150.556 58.7031 150.858 58.8987 151.258 58.7194C151.201 58.4913 151.12 58.3527 151.087 58.1164C151.054 57.8394 151.03 57.6683 151.03 57.375C151.03 56.8372 151.25 56.552 151.25 56.0061C151.25 55.3216 151.079 54.9387 151.079 54.2542C151.079 53.9446 151.128 53.7653 151.136 53.4638C151.16 52.2579 151.128 51.1661 151.062 50.1475H154.64C154.86 52.1601 155.065 54.1809 154.975 56.7475C154.95 57.5053 154.901 57.9535 154.803 58.7113C154.746 59.1839 154.934 59.4364 154.95 59.4935C155.767 59.2327 155.685 59.5261 156.543 59.5261H158.397L158.454 59.4202L158.119 56.6335L157.033 48.8194L157.017 48.8275Z" fill="black"></path><path d="M144.463 37.526H143.736C142.968 37.526 141.833 37.2653 141.833 38.0149V38.9927C141.833 42.1949 140.648 43.906 140.542 47.1001C140.526 47.5727 140.428 47.8498 140.428 48.3223C140.428 48.7949 140.403 49.1209 140.313 49.6016C139.366 47.2794 139.064 45.886 138.133 43.5557C137.651 42.3416 137.275 41.6734 136.679 40.5083C136.311 39.7831 135.993 39.392 135.78 38.6016C135.666 38.186 135.584 37.6727 135.135 37.6727C134.392 37.6727 134 37.9986 133.256 37.9986C133.477 40.3209 133.812 41.5838 134.204 43.8735C134.49 45.5764 134.179 46.5786 134.432 48.2816C134.522 48.9416 134.702 49.3001 134.702 49.9683C134.735 52.8527 134.767 54.4824 134.702 57.3668C134.702 57.8068 134.678 58.1083 134.424 58.4587V58.7846C135.698 58.7846 136.393 58.4016 137.667 58.4016C137.593 57.872 137.414 57.5705 137.389 57.0409C137.218 54.2216 137.299 52.6164 137.112 49.8053C137.063 49.0475 136.777 48.632 136.777 47.8742C136.777 47.7683 136.85 47.7194 136.891 47.6298C137.691 48.9416 137.618 49.9112 138.173 51.329C138.729 52.7305 138.884 53.6024 139.178 55.0853C139.333 55.8839 139.57 56.332 139.57 57.155V57.6439C139.57 57.7824 139.684 57.8313 139.684 57.9698C139.684 58.1572 139.57 58.2713 139.57 58.4587C139.57 58.695 139.635 59.0046 139.88 59.0046C140.779 59.0046 141.253 58.6787 142.143 58.6787H143.376C143.295 57.7905 143.172 57.2853 143.148 56.3972C143.09 54.5231 143.099 53.4801 143.148 51.6061C143.172 50.5468 143.246 49.9357 143.368 48.8846C143.924 44.3623 144.144 41.8038 145.157 37.3468H144.879C144.716 37.4282 144.618 37.5097 144.43 37.5097L144.463 37.526Z" fill="black"></path><path d="M120.71 55.6475C120.212 55.6475 120.008 55.9898 119.534 56.1364C119.028 56.2994 118.717 56.2831 118.186 56.3564C117.835 56.3972 117.623 56.4135 117.263 56.4135C117.027 56.4135 116.88 56.2016 116.847 55.9816C116.675 54.9957 116.79 54.4009 116.79 53.3987C116.79 52.2661 116.806 51.6142 116.904 50.4898C116.945 50.0009 117.411 49.732 117.909 49.6749C118.873 49.5609 119.469 49.6912 120.424 49.512C120.424 49.0638 120.253 48.8194 120.253 48.3712C120.253 47.9231 120.196 47.6542 120.196 47.1979C120.196 47.0105 120.31 46.8964 120.31 46.709C120.31 46.5542 120.188 46.4075 120.032 46.4075C119.616 46.4075 119.436 46.7335 119.028 46.7335C118.799 46.7335 118.668 46.6275 118.44 46.6275C118.276 46.6275 118.186 46.7335 118.023 46.7335H116.847C116.782 44.5498 116.618 43.3112 116.675 41.1275C116.675 40.9808 116.798 40.8994 116.896 40.8016C117.182 41.0379 117.427 41.1031 117.794 41.1846C118.693 41.3883 119.24 41.2905 120.171 41.2905C120.375 41.2905 120.596 41.1846 120.596 40.989C120.596 40.6386 120.424 40.4431 120.424 40.0927C120.424 39.4734 120.326 39.1231 120.253 38.512C120.212 38.1208 120.367 37.8601 120.253 37.4771C119.575 37.909 118.995 37.7542 118.178 37.8031C116.242 37.9171 115.14 37.8031 113.196 37.8031C113.196 38.8542 113.588 39.4164 113.588 40.4594V41.8772C113.588 42.0157 113.645 42.0809 113.702 42.2031V44.8186C113.702 45.552 113.776 45.9675 113.874 46.6927C113.939 50.3105 114.315 52.372 113.874 55.9735C113.817 56.4705 113.653 56.7476 113.653 57.2527C113.653 57.8801 113.621 58.2305 113.653 58.8579H114.217C114.348 58.8009 114.437 58.752 114.584 58.752C114.756 58.752 114.838 58.8579 115.001 58.8579C117.141 58.9313 118.342 58.8579 120.482 58.8579V58.3609C120.482 57.375 120.874 56.8453 120.874 55.8594C120.874 55.7535 120.817 55.6394 120.702 55.6394L120.71 55.6475Z" fill="black"></path><path d="M110.607 44.7616V38.8868C110.607 38.512 110.729 38.3001 110.884 37.9579L110.77 37.852C110.46 37.8845 110.272 37.7949 109.961 37.7949C109.39 37.7949 109.079 38.0149 108.507 38.0149C108.083 38.0149 107.846 37.852 107.413 37.852C107.364 37.852 107.339 37.909 107.299 37.909C107.429 38.1616 107.519 38.3327 107.519 38.6179V40.0846C107.519 41.0623 107.756 41.6083 107.789 42.586C107.854 44.2401 107.74 45.1772 107.789 46.8312C107.789 47.2223 107.96 47.4261 107.96 47.809C107.96 48.0453 107.846 48.1675 107.846 48.4038C107.846 48.7786 107.911 48.9986 108.017 49.3572C107.993 51.4268 108.034 52.592 107.96 54.6616C107.944 55.1587 107.846 55.452 107.683 55.9164C107.584 56.1853 107.527 56.5194 107.233 56.5194H106.727C104.669 56.5194 104.644 53.8305 104.546 51.8424C104.399 48.8927 104.407 47.2061 104.325 44.2483C104.325 43.572 104.497 43.2053 104.497 42.5372C104.497 42.0238 104.432 41.7386 104.497 41.2334C104.595 40.4349 104.317 39.9542 104.497 39.1638C104.579 38.7808 104.832 38.6097 104.832 38.2105C104.832 38.1534 104.783 38.1208 104.775 38.072C104.342 38.072 104.08 38.072 103.656 38.0149C102.872 37.9171 102.39 37.9253 101.638 37.689C101.614 38.1371 101.548 38.3816 101.581 38.8297C101.581 38.9438 101.638 39.0008 101.695 39.0986V39.6446C101.695 39.7831 101.63 39.8646 101.581 39.9949C101.687 44.6557 101.704 47.2875 101.859 51.9401C101.875 52.4942 102.104 52.8038 102.136 53.3579C102.235 54.7105 102.112 55.4846 102.251 56.8453C102.284 57.2364 102.749 57.2772 102.978 57.6031C103.386 58.1653 103.509 58.6787 104.154 58.9639C104.816 59.2572 105.281 59.1513 106 59.2327C106.269 59.2653 106.425 59.2898 106.702 59.2898C107.535 59.2898 107.96 58.972 108.744 58.695C109.463 58.4424 110.092 58.4831 110.533 57.8801C110.95 57.3016 110.884 56.7964 111.146 56.1364C111.146 52.9098 111.276 51.0846 111.129 47.8661C111.072 46.652 110.59 45.992 110.59 44.7616H110.607Z" fill="black"></path><path d="M171.262 43.409C171.262 41.9179 171.164 41.2905 170.747 39.8564C170.469 38.8705 169.653 39.066 169.048 38.4305C168.746 38.1127 168.109 37.469 167.676 37.4445C166.001 37.3223 165.822 37.3386 164.139 37.3712C163.2 37.3875 162.783 38.0149 162.138 38.6668C161.615 39.2045 161.003 39.3268 160.741 40.0194C160.276 41.2497 159.982 40.9157 159.483 42.1297L159.778 48.5994C159.802 49.0068 159.704 50.6853 159.704 51.0846C159.704 53.0238 159.688 53.3905 160.317 55.2238C160.848 56.7801 161.084 57.7742 162.138 59.0535C162.391 59.3631 162.359 59.8764 162.775 59.8764C163.273 59.8764 163.535 59.6809 164.017 59.5831C164.874 59.3876 165.397 59.5098 166.255 59.3468C166.777 59.249 167.047 58.9964 167.586 58.9964C168.052 58.9964 170.077 57.6031 170.077 57.5461C170.077 56.7068 170.78 56.1772 170.878 55.3461L171.155 53.0483C171.368 51.3372 171.253 51.1009 171.384 49.3898C171.409 49.072 171.76 46.6112 171.458 46.4727C171.164 46.3423 171.245 43.4823 171.237 43.4172L171.262 43.409ZM168.926 49.3735L168.632 52.0705C168.534 52.9505 168.117 53.529 168.117 54.4172C168.117 54.8327 167.831 55.5009 167.66 55.8757C167.504 56.2016 167.104 56.0957 166.753 56.169C165.993 56.332 165.593 56.6987 164.817 56.6987C164.425 56.6987 164.425 56.2179 164.27 55.8757C163.894 55.0201 163.633 54.5312 163.363 53.6349C162.996 52.4127 162.571 51.7283 162.571 50.449V46.9698C162.571 45.6009 162.195 44.4031 162.416 43.0505C162.571 42.1134 162.971 40.492 163.951 40.492C164.588 40.492 165.928 39.0742 167.096 40.2801C167.798 40.3779 168.354 41.3068 168.485 41.9831C168.738 43.246 168.828 45.3401 169.073 46.6031C169.195 46.6927 168.803 49.292 168.926 49.3653V49.3735Z" fill="black"></path><path d="M131.557 53.529C131.476 53.1379 131.165 52.975 131.165 52.5757C131.165 51.7201 130.986 51.1905 130.496 50.4816C130.226 50.0905 129.883 49.8786 129.883 49.3898C129.883 49.0801 130.389 49.2105 130.553 48.9579C130.928 48.3549 130.871 47.8742 130.888 47.1653C130.912 46.1631 131.01 45.609 131.108 44.6068C131.084 43.8653 131.108 43.4334 131.051 42.7001C130.969 41.6001 130.512 41.0297 130.152 39.9786C129.654 38.5201 128.87 37.2001 127.302 37.2001C126.322 37.2001 125.766 37.3631 124.786 37.3631C124.321 37.3631 124.084 37.0942 123.61 37.0942C123.291 37.0942 123.104 37.2245 122.826 37.3631V39.8646C122.826 40.3127 123.357 40.4105 123.438 40.8423V51.6712C123.438 52.1031 123.528 52.3475 123.61 52.7631L123.438 59.1839H124.051C124.999 58.8742 125.603 59.0209 126.567 58.8009C126.461 58.1572 126.412 57.7905 126.346 57.1387L126.403 51.7772C126.281 51.1579 127.04 50.7424 127.694 50.7424C128.029 50.7424 127.98 51.1742 128.143 51.4512C128.739 52.4779 128.731 53.2194 128.927 54.3927C129.172 55.8431 129.654 56.6253 129.654 58.092V58.6868C129.72 58.7113 129.744 58.7927 129.826 58.7927C130.675 58.7927 131.124 58.4831 131.949 58.3039C132.366 58.2061 132.954 58.2631 132.954 57.8394C132.954 57.4809 132.668 57.3342 132.562 57.0001C132.145 55.6557 131.86 54.8898 131.557 53.5127V53.529ZM126.461 48.0861C126.436 48.0372 126.395 48.0046 126.346 47.9801V47.0512C126.346 46.3505 126.207 45.9594 126.175 45.2586C126.101 43.5883 126.06 42.6349 126.06 40.9564C126.06 40.7201 126.142 40.5734 126.232 40.3534H127.016C127.825 41.6572 127.784 42.6186 128.078 44.1097C128.192 44.7046 128.527 44.9979 128.527 45.609C128.527 46.8557 127.669 47.6868 126.452 48.0861H126.461Z" fill="black"></path><path d="M99.245 51.1905C99.1225 50.4735 98.6815 50.1231 98.6815 49.3979V48.909C98.6815 47.5646 98.2159 46.8475 97.8973 45.5357C97.4808 43.8083 97.5298 42.7734 97.2276 41.0216C97.0479 39.9623 96.6721 39.4001 96.6721 38.3246C96.6721 38.0638 96.7865 37.9334 96.7865 37.6727C96.7865 37.6157 96.7375 37.5831 96.7293 37.5342C95.937 37.7379 95.4796 37.8601 94.6628 37.8601C94.3933 37.8601 94.2381 37.7542 93.9604 37.7542C93.7399 37.7542 93.6255 37.8601 93.3968 37.8601C93.2253 37.8601 93.1273 37.7542 92.9476 37.7542C92.7597 37.7542 92.6617 37.7949 92.4738 37.8112C92.4738 39.3186 92.3431 40.1742 92.1961 41.6734C92.0736 42.9283 91.8041 43.629 91.8041 44.8838V45.6416C91.8041 47.1979 91.2241 48.0127 91.0281 49.5609C90.9219 50.3838 91.0281 50.8564 91.0281 51.6875C90.9383 51.6875 90.8811 51.7038 90.8076 51.7446C90.8566 51.6957 90.9138 51.7772 90.9791 51.8016C90.9546 51.8668 90.8647 51.8668 90.8647 51.9401C90.8647 52.0135 90.9791 52.0298 90.9791 52.1031C90.9791 52.6979 90.7014 53.0075 90.7014 53.6024V54.2542C90.7014 56.1853 89.9091 57.1794 89.5824 59.0942C90.5299 58.9068 91.1016 59.3142 92.0736 59.3142C92.4738 59.3142 92.3921 58.7683 92.4412 58.3853C92.5147 57.8557 92.7189 57.5624 92.7189 57.0246C92.7189 56.4461 93.0211 56.169 93.1681 55.6068C93.2253 55.4031 93.1273 55.2075 93.2825 55.0609C93.5602 54.7838 93.9032 54.9305 94.2871 54.8409C95.2428 54.6127 95.79 54.4009 96.7783 54.4009C97.056 54.4009 96.9744 54.792 97.0315 55.0527C97.1704 55.672 97.2929 56.0142 97.4808 56.6335C97.7503 57.5216 97.8728 58.0513 97.8728 58.972V60.1127C97.979 60.1372 98.0362 60.1698 98.1505 60.1698C98.7468 60.1698 98.9755 59.7053 99.5473 59.575C100.086 59.4446 100.944 59.7624 100.944 59.2246C100.944 58.2224 100.503 57.7172 100.274 56.7475C99.7678 54.6046 99.6371 53.3661 99.2695 51.1987L99.245 51.1905ZM95.1611 51.6224C94.7118 51.6224 94.4341 51.6468 94.0421 51.8424C94.0257 51.7853 93.9849 51.7527 93.9277 51.7364C93.9931 50.4409 93.9849 49.6994 94.0992 48.4201C94.1401 47.8661 94.2789 47.5564 94.3198 47.0023C94.4668 45.1609 94.4913 44.1097 94.5975 42.2683C94.7527 42.252 94.8425 42.252 94.9896 42.2683C94.9896 42.8794 95.0467 43.2379 95.0467 43.849C95.0467 45.2179 95.1856 45.992 95.4388 47.3364C95.7247 48.8683 95.9534 49.732 96.2801 51.2557C96.1167 51.6712 95.6266 51.6387 95.1611 51.6387V51.6224Z" fill="black"></path><path d="M88.1285 51.4024C88.153 51.3535 88.2428 51.3779 88.2428 51.3209C88.2428 50.8483 88.1285 50.5712 88.1285 50.0986C88.1285 49.8461 88.251 49.6586 88.1285 49.4468C87.6793 48.7216 86.3397 49.0149 86.3397 48.1675C86.3397 47.8253 86.5521 47.6461 86.6746 47.3201C87.0095 46.4972 87.181 45.9838 87.181 45.0875V44.4927C87.181 44.0609 87.3525 43.8327 87.3525 43.4009C87.3525 41.6327 87.083 40.549 86.2335 38.9927C85.866 38.3164 85.817 37.5749 85.0574 37.3631C84.5509 37.2164 84.2324 37.3223 83.7178 37.2571C82.1414 37.3223 81.2511 37.3223 79.691 37.4201C79.0866 37.4527 78.621 37.4038 78.18 37.8031C78.8661 38.2838 78.6945 38.9764 78.9641 39.7586C79.0866 40.1253 78.9232 40.4186 79.1356 40.7364C79.3561 41.0705 79.8707 41.046 79.9197 41.4453C80.0994 42.8223 80.0831 43.6127 80.2546 44.9816C80.3363 45.6335 80.2955 46.0083 80.2546 46.6683C80.1974 47.5727 80.5323 48.0779 80.5323 48.9823C80.5323 49.129 80.418 49.1942 80.418 49.3327C80.418 49.9927 80.5487 50.3594 80.5323 51.0194C80.5078 51.6794 80.3608 52.0461 80.3608 52.7061C80.3608 52.7712 80.4751 52.755 80.4751 52.812C80.4751 53.1705 80.4506 53.3824 80.418 53.7409C80.2955 54.9468 80.0586 55.6394 80.1974 56.8453C80.2301 57.1957 80.2301 57.7172 79.8626 57.7172C79.789 57.7172 79.7645 57.6601 79.691 57.6601C79.544 58.2061 79.5767 58.5401 79.5767 59.1024C79.5767 59.3794 79.9606 59.4039 80.2464 59.4039C80.8182 59.4039 81.1286 59.2409 81.7003 59.2409C82.3048 59.2409 82.656 59.2735 83.2686 59.2409C85.0329 59.1431 86.4704 59.1513 87.5241 57.7742C88.0632 57.0653 87.8508 56.4135 87.9733 55.5416C88.1693 54.0831 88.251 53.2357 88.251 51.7609C88.251 51.6631 88.3409 51.6142 88.4225 51.5735H88.1448V51.4105L88.1285 51.4024ZM82.4763 42.3172C82.4109 41.7468 82.2558 41.429 82.2558 40.8505C82.2558 40.4023 82.8602 40.3616 83.3176 40.3616C83.775 40.3616 83.9874 40.8423 83.9874 41.2905C83.9874 41.5105 84.1997 41.5757 84.2651 41.7794C84.5428 42.5372 84.8205 42.9609 84.8205 43.7675C84.8205 44.452 84.7633 44.8512 84.7633 45.5357C84.7633 45.8453 84.6 46.0083 84.5428 46.2935C84.4611 46.6846 84.5673 47.0186 84.3222 47.3283C83.9465 47.7927 83.4401 47.7194 82.9255 48.0372V46.8638C82.9255 46.0246 82.7458 45.552 82.6478 44.7127C82.5335 43.7838 82.5906 43.246 82.4763 42.3172ZM85.3841 52.4372C85.3841 53.3172 85.2371 53.8142 85.0492 54.6698C84.9103 55.2972 85.2044 55.8187 84.7715 56.2994C84.3467 56.772 83.775 56.609 83.2032 56.9024C83.0154 56.6742 82.9255 56.4868 82.9255 56.1935C82.9255 55.9898 83.0399 55.8838 83.0399 55.6801C83.0399 54.9468 82.8193 54.5394 82.8193 53.8061C82.8193 53.1461 82.8193 52.7631 82.9337 52.1194C83.0725 51.2638 83.8322 50.7016 84.7225 50.7016C85.1717 50.7016 85.3922 51.1661 85.3922 51.5979C85.3922 51.655 85.3269 51.6549 85.2779 51.6794C85.3432 51.9646 85.3922 52.1438 85.3922 52.4372H85.3841Z" fill="black"></path><path d="M99.8331 26.9823C99.7515 26.5912 99.4492 26.4282 99.4492 26.029C99.4492 25.1653 99.2695 24.6356 98.7958 23.9267C98.5263 23.5275 98.1914 23.3156 98.1914 22.8349C98.1914 22.5253 98.6896 22.6556 98.8448 22.3949C99.2124 21.7838 99.1634 21.3112 99.1715 20.5941C99.196 19.5919 99.294 19.0297 99.3921 18.0275C99.3757 17.286 99.3921 16.8541 99.3349 16.1126C99.2532 15.0045 98.804 14.4423 98.4609 13.383C97.979 11.9245 97.2112 10.5963 95.6675 10.5963C94.7118 10.5963 94.1646 10.7593 93.2008 10.7593C92.7434 10.7593 92.5065 10.4823 92.0491 10.4823C91.7306 10.4823 91.559 10.6126 91.2813 10.7593V13.2771C91.2813 13.7252 91.8041 13.823 91.8857 14.263V25.1327C91.8857 25.5645 91.9756 25.809 92.0491 26.2245L91.8857 32.6697H92.4902C93.4131 32.3601 94.0094 32.5068 94.9569 32.2868C94.8589 31.6349 94.8099 31.2764 94.7363 30.6245L94.7935 25.2467C94.671 24.6275 95.4143 24.2119 96.0514 24.2119C96.3781 24.2119 96.3291 24.6438 96.4924 24.9208C97.0724 25.9556 97.0642 26.6971 97.2602 27.8705C97.4971 29.3208 97.9708 30.1112 97.9708 31.586V32.189C98.0362 32.2134 98.0607 32.2949 98.1342 32.2949C98.9673 32.2949 99.4002 31.9853 100.217 31.806C100.625 31.7082 101.205 31.7653 101.205 31.3416C101.205 30.9749 100.928 30.8364 100.821 30.4942C100.421 29.1416 100.135 28.3756 99.8331 26.9986V26.9823ZM94.8507 21.5149C94.8262 21.466 94.7935 21.4334 94.7445 21.409V20.4801C94.7445 19.7793 94.6057 19.3801 94.5812 18.6793C94.5076 17.0008 94.475 16.0475 94.475 14.3608C94.475 14.1245 94.5567 13.9778 94.6383 13.7578H95.4061C96.1902 15.0697 96.1576 16.0312 96.4434 17.5304C96.5496 18.1252 96.8845 18.4267 96.8845 19.0297C96.8845 20.2764 96.0514 21.1238 94.8589 21.5149H94.8507Z" fill="black"></path></svg>